<?xml version="1.0" encoding="utf-8"?>
<!-- Generator: Adobe Illustrator 26.0.3, SVG Export Plug-In . SVG Version: 6.00 Build 0)  -->
<svg version="1.1" id="Calque_1" xmlns="http://www.w3.org/2000/svg" xmlns:xlink="http://www.w3.org/1999/xlink" x="0px" y="0px"
	 viewBox="0 0 903.3 605.2" style="enable-background:new 0 0 903.3 605.2;" xml:space="preserve">
<style type="text/css">
	.st0{fill:#2F2E41;}
	.st1{fill:#9F616A;}
	.st2{fill:#F2F2F2;}
	.st3{opacity:0.1;enable-background:new    ;}
	.st4{fill:#FFB8B8;}
	.st5{fill:#FF5757;}
	.st6{fill:#575A88;}
	.st7{fill:#30A17D;}
	.st8{fill:none;stroke:#2F2E41;stroke-miterlimit:10;}
	.st9{opacity:0.2;enable-background:new    ;}
	.st10{fill:#381E1D;}
	.st11{fill:#FDA57D;}
	.st12{fill:#333333;}
	.st13{fill:#E0E0E0;}
	.st14{fill:#F55F44;}
</style>
<path class="st0" d="M608.9,20.9c0,0,2.1,2.4-1.5,7.1s-0.7,14.8,6.2,15.1s10.2,3.1,8.6,6.9s-3.6,12.8,3.8,11.4s9.9,1.6,8.5,3.9
	s3.3-4.6,3.3-4.6s4.2,6.2,9.3,1.9s7.2-43.8-3.3-44.5S608.9,20.9,608.9,20.9z"/>
<polygon class="st1" points="661.9,208.5 664.2,225.2 674.9,225.2 671.4,206.1 "/>
<path class="st2" d="M676.1,215.1c0,0,14.3,13.1,10.7,14.3s-16.7,15.5-19,16.7c-2.1,1.1-25,8.3-21.4,0s11.9-13.1,11.9-13.1l2.4-14.3
	L676.1,215.1z"/>
<path class="st3" d="M676.1,215.1c0,0,14.3,13.1,10.7,14.3s-16.7,15.5-19,16.7c-2.1,1.1-25,8.3-21.4,0s11.9-13.1,11.9-13.1l2.4-14.3
	L676.1,215.1z"/>
<polygon class="st1" points="676.1,196 678.5,212.7 689.2,212.7 685.7,193.6 "/>
<path class="st4" d="M631.4,151.8l15.6-51.5c0,0-26.2-23.8-8.3-30.9s22.6,28.5,22.6,28.5l-5.9,61.9h-23.8L631.4,151.8z"/>
<path class="st5" d="M667.8,113.9c0,0-30.7,39.4-26.1,45.3s13,41.5,13,41.5s-1.2,14.3,3.6,14.3s16.7-2.4,16.7-5.9
	s-10.7-48.8-10.7-48.8l30.9-40.4L667.8,113.9z"/>
<path class="st5" d="M670.2,116.3l30.9-16.7c0,0,21.4,10.7,15.5,20.2s-33.3,34.5-33.3,34.5s8.3,40.4,7.1,41.6s-14.3,5.9-17.8,4.8
	s-22.6-47.6-17.8-50s20.2-27.4,20.2-27.4L670.2,116.3z"/>
<path class="st0" d="M585.7,552.9c0,0,21.4,13.1,23.8,13.1s34.5,8.3,20.2,14.3s-69-2.4-67.8-5.9s0-25,2.4-25
	S585.7,552.9,585.7,552.9z"/>
<path class="st0" d="M609.5,569.5c0,0,21.4,13.1,23.8,13.1s34.5,8.3,20.2,14.3s-69-2.4-67.8-5.9s0-25,2.4-25
	S609.5,569.5,609.5,569.5z"/>
<path class="st6" d="M586.9,317.3c0,0,3.6,17.8,9.5,30.9s-1.2,74.9-4.8,84.5s-38.1,122.5-27.4,123.7s32.1,0,32.1,0l34.5-108.2
	L625,303.1L586.9,317.3z"/>
<path class="st3" d="M586.9,317.3c0,0,3.6,17.8,9.5,30.9s-1.2,74.9-4.8,84.5s-38.1,122.5-27.4,123.7s32.1,0,32.1,0l34.5-108.2
	L625,303.1L586.9,317.3z"/>
<path class="st6" d="M594.1,318.5c0,0,4.8,32.1,15.5,39.3c10.7,7.1,7.1,14.3,7.1,14.3l-4.8,63c0,0-46.4,114.2-32.1,128.5
	s27.4,8.3,33.3,7.1s16.7-26.2,10.7-33.3s11.9-50,16.7-57.1s0-16.7,5.9-19s19-17.8,19-28.5s16.7-124.9,5.9-132s-79.3,14.7-79.3,14.7
	L594.1,318.5z"/>
<circle class="st4" cx="571.5" cy="125.8" r="26.2"/>
<circle class="st1" cx="630.9" cy="30.7" r="21.4"/>
<path class="st4" d="M589.3,125.8c0,0,14.3,26.2,21.4,26.2s-28.5,27.4-28.5,27.4s-11.9-34.5-14.3-35.7S589.3,125.8,589.3,125.8z"/>
<path class="st7" d="M594.1,149.6c0,0-30.9,10.7-29.7,14.3s-8.3,11.9-8.3,15.5s-2.4,35.7,11.9,61.9s36.9,45.2,26.2,57.1
	s-27.4,32.1-9.5,32.1s46.4-26.2,72.6-16.7s20.2-26.2,20.2-26.2s3.6-27.4-3.6-35.7c-7.1-8.3-32.1-67.8-32.1-74.9
	s-23.8-34.5-29.7-34.5S594.1,149.6,594.1,149.6z"/>
<path class="st8" d="M630.9,43.8"/>
<path class="st1" d="M636.9,43.8c0,0,9.7,18.4,10.2,21.7s17.2-21.7,17.2-21.7l-19-13.1L636.9,43.8z"/>
<path class="st2" d="M640.5,58l20.2-21.4l23.8,10.7c0,0,22.2,48.8,23.6,52.3s-35.5,20.2-39,20.2S640.5,83,640.5,83
	S634.5,65.2,640.5,58z"/>
<polygon class="st1" points="630.9,86.6 630.9,108 645.2,108 640.5,86.6 "/>
<path class="st1" d="M639.1,102.6c-3.7,0-7,2.2-8.4,5.6c-0.9,2.5-0.6,5.2,3.8,6.3c9.5,2.4,10.7,0,10.7,0s16.5-2.4,13-7.1
	s-13-4.8-13-4.8L639.1,102.6z"/>
<path class="st2" d="M690.4,205.5c0,0,14.3,13.1,10.7,14.3s-16.7,15.5-19,16.7c-2.1,1.1-25,8.3-21.4,0s11.9-13.1,11.9-13.1l2.4-14.3
	L690.4,205.5z"/>
<path class="st0" d="M562.1,105.7c1.6-1,3.6-2.2,3.6-4.1c-0.1-1.4-1-2.7-2.4-3.2c-1.3-0.5-2.7-0.6-4.1-0.6c-0.5,0-1.1,0-1.6,0.2
	c-1.4,0.4-2.1,1.8-3.2,2.7c-1.5,1.4-3.7,1.8-5.7,2.3c-3.3,0.9-6.5,2.2-9.5,3.9c-0.6,0.3-1.1,0.7-1.5,1.2c-0.5,1-0.7,2-0.6,3.1
	c-0.3,4-2.7,7.5-4.5,11.2s-3,8.1-0.9,11.6c0.8,1.1,1.6,2.2,2.4,3.3c1.5,3.1-0.4,7,0.7,10.3c0.5,1.3,1.3,2.5,2.3,3.4
	c2.1,2.1,4.7,3.7,7.5,4.5c2.7,0.8,6.1,1.4,7.1,4c0.5,1.1,0.4,2.5,1,3.5c0.8,1.3,2.4,1.7,3.9,2c1.7,0.4,3.4,0.5,5.1,0.4
	c1.7-0.1,3.3-1,4.4-2.3c0.5-0.9,1.1-1.8,1.8-2.6c1.7-1.4,4.3-0.3,6.6-0.7c1.8-0.3,3.3-1.7,3.8-3.5c0.1-0.9,0.3-1.9,0.8-2.7
	c1.4-1.8,5-0.5,5.9-2.6c0.6-1.3-0.6-2.7-1.8-3.5c-1.9-1.3-4.1-2.4-5.9-4s-3-4-2.5-6.3c0.8-3.4,5.3-5.3,5.5-8.9c0.1-2-1.4-3.8-3-5
	s-3.5-2.1-5-3.5c-1.1-1-1.9-2.3-3-3.3c-2.1-1.7-5-1.9-7.6-2.2c-1.4-0.1-7.1-0.8-6.9-3C554.8,109.7,560.7,106.6,562.1,105.7z"/>
<path class="st2" d="M640.5,56.9c0,0-13.1,4.8-13.1,10.7s-5.9,25,0,25s17.8-4.6,17.8-4.6L640.5,56.9z"/>
<path class="st4" d="M636.9,142.5c0,0,34.5-11.9,35.7-11.9s17.8-9.5,16.7-13.1l-4.8-29.7c0,0-19-39.3-5.9-39.3s20.2,30.9,20.2,30.9
	s28.5,53.5,13.1,65.4s-79.7,33.3-83.3,29.7S636.9,142.5,636.9,142.5z"/>
<path class="st1" d="M670.2,65.2l8,7.7L667.8,83c0,0-14.3-5.9-13.1-2.4s8.3,14.3,13.1,14.3s29.5-15.5,29.6-20.2
	s-15.4-21.4-18.9-22.6S670.2,65.2,670.2,65.2z"/>
<path class="st2" d="M655.1,56.9c0,0,17.5,15.4,19.9,15.4s6.7-23.2,6.7-23.2s-14.1-9.2-19.3-6.7S655.1,56.9,655.1,56.9z"/>
<path class="st7" d="M594.1,156.8c0,0,0-16.7,35.7-16.7h15.5l-7.1,39.3l-23.8,7.1L594.1,156.8z"/>
<path class="st0" d="M672,22c-3.5,0-7-0.2-10.5-0.6c-2.7-6.6-6.2-12.1-10-14.2c-2.7-2.4-6.8-4.1-10-5.5c-7.9-3.4-21.1-1.3-21.9,2.6
	C604.1,11.7,608,24.8,608,24.8c2.4,5.1,7.9,2.9,12.5,0.5c1.2,3.7,4,6.9,7.9,7c7.6,0.3,11.3,3.5,9.5,7.7s-4,14.2,4.3,12.7
	s10.9,1.8,9.4,4.3s3.7-5,3.7-5s4.6,6.9,10.3,2.1c0.6-0.6,1-1.3,1.2-2c2.6,1.1,4.7,1.6,5.9,1c6.8-3,2.6-10.2,2.6-10.2
	s9.1-1.4,6.1-1.2s-4.8-3.6,0.2-10.4S676.6,22.2,672,22z"/>
<rect x="617.3" y="19.4" transform="matrix(0.3158 -0.9488 0.9488 0.3158 405.9297 605.2421)" class="st5" width="10.7" height="3.6"/>
<path class="st0" d="M223,107.6c0,0-1.4,4.7,6.6,9s10.4,20.4,0.9,25.1s-12.3,10.9-7.6,15.1s13.3,15.6,1.9,18.5s-12.8,8.5-9.5,10.9
	s-7.6-4.3-7.6-4.3s-1.9,11.4-11.8,8.5s-37.9-56.8-23.7-64.4S223,107.6,223,107.6z"/>
<polygon class="st1" points="186.4,508.8 189.4,537.5 176.1,545.7 163.8,543.7 169.9,508.8 "/>
<circle class="st1" cx="196.6" cy="135.5" r="28.7"/>
<path class="st1" d="M206.4,149.3c0,0,2.6,43.6,5.6,43.6s-35.9-2.1-35.9-2.1s16.4-28.7,8.2-37.9S206.4,149.3,206.4,149.3z"/>
<polygon class="st0" points="163.8,379.6 177.1,430.9 166.9,518 190.5,516 199.7,379.6 "/>
<polygon class="st9" points="163.8,379.6 177.1,430.9 166.9,518 190.5,516 199.7,379.6 "/>
<path class="st0" d="M184.3,532.4c0,0,1-6.2,11.3,0s53.3,25.6,30.8,29.7s-68.7-5.1-68.7-8.2s-1-22.6,3.1-20.5
	S178.2,548.8,184.3,532.4z"/>
<path class="st1" d="M171,525.2c0,0-16.4,25.6-17.4,32.8s-16.4-16.4-16.4-16.4l14.4-26.7L171,525.2z"/>
<path class="st0" d="M225.3,383.7l-18.5,61.5c0,0-32.8,87.2-34.9,86.2s-26.7-7.2-27.7-10.3s30.8-86.2,30.8-86.2l4.1-53.3
	L225.3,383.7z"/>
<path class="st0" d="M134.1,537.5c5.7-0.4,11.1,2.9,13.3,8.2c4.1,9.2,9.2,10.3,10.3,11.3s-3.1,22.6,0,24.6s6.2,23.6-4.1,23.6
	s-26.7-11.3-25.6-13.3s1-16.4-2.1-22.6s-8.2-16.4,0-22.6S134.1,537.5,134.1,537.5z"/>
<path class="st5" d="M231.5,288.3l2.1,18.5c0,0,15.4,15.4,20.5,33.8c5.1,18.5,47.2,49.2,34.9,53.3s-26.7,6.2-62.6,0
	s-92.3,7.2-92.3-26.7c0,0-7.2-9.2-12.3,4.1c-3.6,9.1-7.7,18-12.3,26.7c0,0-12.3-21.5-8.2-30.8s0-8.2,5.1-18.5s30.8-48.2,41-50.3
	s29.7-28.7,28.7-31.8S231.5,288.3,231.5,288.3z"/>
<path class="st6" d="M176.1,173.4c0,0,42.1,9.2,44.1,15.4c1.2,3.5,6.5,9.8,11,14.8c7.6,8.2,12.6,18.4,14.5,29.4
	c1.1,6.5-3.4,12.4-5.5,20c-6.2,22.6-10.8,16.9-4.6,33.3s-30.8,22.6-45.1,15.4s-30.3-49.7-30.3-54.9s-13.8-63.1-2.6-67.2
	S176.1,173.4,176.1,173.4z"/>
<path class="st1" d="M234.6,222.7l12.3,54.4l40.5,17.9c0,0,30.8-7.2,31.8,4.1c0.7,7.4-34.9,10.3-34.9,10.3l-59-23.1L212,236
	L234.6,222.7z"/>
<path class="st6" d="M220.2,202.2c0,0,25.6,15.4,19.5,23.6s-21.5,21.5-25.6,21.5s-7.2-24.6-7.2-31.8S220.2,202.2,220.2,202.2z"/>
<path class="st0" d="M194.5,98.2c0,0-1.6,5.2,7.3,10c8.9,4.7,11.5,22.5,1,27.8s-13.6,12.1-8.4,16.8s14.7,17.3,2.1,20.4
	s-14.2,9.4-10.5,12.1s-8.4-4.7-8.4-4.7s-2.1,12.6-13.1,9.4s-22-60.3-9.7-75.1C166.4,101.2,194.5,98.2,194.5,98.2z"/>
<path class="st0" d="M197.9,92.8c0-7.7-23-2.2-32.8,8.6c-6.8,7.4-17.2,18.6-8.5,26.5s-14.9,18.2-21.2,21.3s-18.8,12.7-7.5,19.1
	s11.1,12.9,6.8,14.4s9.3-2.3,9.3-2.3s-1.4,12.7,10.1,12.6s44.3-63,36.5-80.5C183.3,96.3,197.9,92.8,197.9,92.8z"/>
<path class="st0" d="M192.9,91.1c30.7-1.9,33.8,21.3,33.8,21.3c-0.2,13.4-21.5,6.9-27.4,8.9c-7.1-5.1-20.9-14.8-30.7-21.7
	C175.8,94.5,184.2,91.6,192.9,91.1z"/>
<rect x="422.3" y="359.3" class="st10" width="9.8" height="229.3"/>
<path class="st10" d="M422.3,359.3c0,0,16.7-21,30.5,6.2c0,0-6.6,12.1-8.5,6.2s-6.7-14.7-12.2-9.5"/>
<path class="st11" d="M420.8,319.2c0,0,24.7,24.3,12.5,44.9c-1.4,2.3-4.3,3.1-6.7,1.7c-0.3-0.2-0.7-0.4-0.9-0.7
	c-4.2-4.1-10.8-14.5-19-40L420.8,319.2z"/>
<path class="st3" d="M403.4,191.1c0,0,25.5,7.9,20.6,38.7s-2.9,52.4-2.9,52.4l6.6,39.3l-11.8,16.1c0,0-20.3-20.3-27.2-40.9
	S382.5,194.4,403.4,191.1z"/>
<path class="st5" d="M403.1,190.8c0,0,25.5,7.9,20.6,38.7s-2.9,52.4-2.9,52.4l6.6,39.3l-11.8,16.1c0,0-20.3-20.3-27.2-40.9
	S382.1,194,403.1,190.8z"/>
<path d="M373.1,541.4l-4.2,31.4c0,0,10.8,4.4,14,3.4s8.9,3.1,8.9,3.1s24,7.6,28.7,0.8s-6-8.9-14.7-14s-12.4-25-12.4-25L373.1,541.4z
	"/>
<path class="st12" d="M419,320v116l-22.3,110.7h-23.6l3.6-106.1c0,0-24.6-85.8-13.8-117.9L419,320z"/>
<path class="st11" d="M400.8,334.6c0,0,34.3,4.9,36.8,28.6c0.3,2.7-1.7,5.1-4.3,5.3c-0.4,0-0.8,0-1.2,0c-5.8-0.8-17.3-5.2-39-20.8
	L400.8,334.6z"/>
<path class="st11" d="M405.1,185.5c0,0-5.6,9.5-3.3,25.9c0,0-32.9-2.8-31.9-21.8c0,0,16.1-3.9,19.8-18.5L405.1,185.5z"/>
<path d="M350.2,548.3l-4.2,31.4c0,0,10.8,4.4,14,3.4s8.9,3.1,8.9,3.1s24,7.6,28.7,0.8s-6-8.9-14.7-14s-12.4-25-12.4-25L350.2,548.3z
	"/>
<path class="st3" d="M394.2,329v116L372,555.7h-23.6l3.6-106.1c0,0-24.6-85.8-13.8-117.9L394.2,329z"/>
<path class="st12" d="M393.3,329v116L371,555.7h-23.6l3.6-106.1c0,0-24.6-85.8-13.8-117.9L393.3,329z"/>
<path class="st3" d="M381.5,191.4c0,0-20.6-13.4-34.4,26.5s-8.2,113.7-8.2,113.7s58.6,19,79.6-7.5v-39.6c0,0,11.1-45.2-4.6-84.5
	C413.9,199.9,400.1,205.5,381.5,191.4z"/>
<path class="st3" d="M380.8,192.4c0,0-20.6-13.4-34.4,26.5s-8.2,113.7-8.2,113.7s58.6,19,79.6-7.5v-39.6c0,0,11.1-45.2-4.6-84.5
	C413.2,200.9,399.5,206.5,380.8,192.4z"/>
<path class="st5" d="M380.8,191.4c0,0-20.6-13.4-34.4,26.5s-8.2,113.7-8.2,113.7s58.6,19,79.6-7.5v-39.6c0,0,11.1-45.2-4.6-84.5
	C413.2,199.9,399.5,205.5,380.8,191.4z"/>
<path class="st3" d="M359.9,211.4c0,0,25.5,7.9,20.6,38.7s-2.9,52.4-2.9,52.4l32.8,33.1l-11.8,16.1c0,0-46.5-14.1-53.4-34.7
	S338.9,214.7,359.9,211.4z"/>
<path class="st3" d="M358.2,212.4c0,0,25.5,7.9,20.6,38.7s-2.9,52.4-2.9,52.4l32.8,33.1l-11.8,16.1c0,0-46.5-14.1-53.4-34.7
	S337.2,215.6,358.2,212.4z"/>
<path class="st5" d="M358.9,211.4c0,0,25.5,7.9,20.6,38.7s-2.9,52.4-2.9,52.4l32.8,33.1l-11.8,16.1c0,0-46.5-14.1-53.4-34.7
	S337.9,214.7,358.9,211.4z"/>
<path class="st3" d="M389.2,172.2l15.4,14.4c-0.3,0.5-0.5,0.9-0.7,1.4c-2.2,0.6-4.5,0.9-6.8,0.9c-5.9,0-11-3-15.4-6.2
	C384.7,179.9,387.3,177.3,389.2,172.2z"/>
<circle class="st13" cx="393.1" cy="149" r="26.5"/>
<circle class="st11" cx="397.5" cy="161.3" r="26.5"/>
<path class="st13" d="M371.2,149c0,0-9.9,26,11.1,34l0,0c6.1-3.1,8.5-10.6,5.4-16.7c-0.6-1.2-1.4-2.2-2.3-3.2L371.2,149z"/>
<path class="st13" d="M419,143.2c0,0,9.2,2.2-6.9,7.8c-5.3,1.8-9.7,5.7-12,10.9c-2.9,6.3-10.3,9-16.6,6.1c-0.2-0.1-0.5-0.2-0.7-0.4
	l-5.1-2.8l-8.8-20.6l10.5-12.1l18-2.3L419,143.2z"/>
<ellipse class="st11" cx="390.5" cy="170" rx="2.6" ry="4.6"/>
<path class="st12" d="M381.5,191.4c0,0,17.9,28,28,28s-7.1-26.3-7.1-26.3l-0.4,7.3L381.5,191.4z"/>
<path class="st14" d="M484.3,436.2c-59.3,0-120.8-6-183.7-18.1C131.4,385.8,40,323,35,320.3l-15.1-25.1l0,0v0
	c1.4,0.8,121.6,64.7,286.7,96.1c151.5,28.9,373.2,35.5,568.9-96.8l-4.3,30.2c-90,60.9-173,91.3-285.4,105.3
	C552.1,434.2,518.2,436.2,484.3,436.2z"/>
<rect x="25.4" y="274.8" class="st13" width="19.8" height="279.9"/>
<path class="st13" d="M19,545.5h32.7c10.5,0,19,8.5,19,19v16.3l0,0H0l0,0v-16.3C0,554,8.5,545.5,19,545.5z"/>
<circle class="st3" cx="35.3" cy="287.5" r="19.8"/>
<circle class="st13" cx="35.3" cy="286.1" r="19.8"/>
<path class="st3" d="M25.4,546.9c0,0,12.7,4.2,19.8,0"/>
<rect x="858.1" y="274.8" class="st13" width="19.8" height="279.9"/>
<path class="st13" d="M851.7,545.5h32.7c10.5,0,19,8.5,19,19v0v16.3l0,0h-70.7l0,0v-16.3C832.7,554,841.2,545.5,851.7,545.5z"/>
<circle class="st3" cx="868" cy="287.5" r="19.8"/>
<circle class="st13" cx="868" cy="286.1" r="19.8"/>
<path class="st3" d="M858.1,546.9c0,0,12.7,4.2,19.8,0"/>
</svg>
