<?xml version="1.0" encoding="utf-8"?>
<!-- Generator: Adobe Illustrator 26.0.3, SVG Export Plug-In . SVG Version: 6.00 Build 0)  -->
<svg version="1.1" id="Calque_1" xmlns="http://www.w3.org/2000/svg" xmlns:xlink="http://www.w3.org/1999/xlink" x="0px" y="0px"
	 viewBox="0 0 671.5 516.6" style="enable-background:new 0 0 671.5 516.6;" xml:space="preserve">
<style type="text/css">
	.st0{fill:#F0F0F0;}
	.st1{fill:#FFFFFF;}
	.st2{fill:#3F3D56;}
	.st3{fill:#FF5757;}
	.st4{fill:#F2F2F2;}
	.st5{fill:#FD6584;}
	.st6{fill:#E6E6E6;}
	.st7{fill:#E4E4E4;}
</style>
<path class="st0" d="M450,145.4c14.4-38.7,48.4-72.2,89.6-76.2c-24.7,37.5-35.4,82.6-30.1,127.2c2.1,17.2,6.2,36.1-3,50.8
	c-5.8,9.1-15.9,14.7-26.4,17.3c-10.5,2.5-21.4,2.3-32.2,2.1l-2.4,1.2C437.9,227.2,435.6,184.2,450,145.4z"/>
<path class="st1" d="M539.8,70.1c-28,19.6-49.2,47.5-60.5,79.8c-2.4,6.9-4.2,14.2-4.3,21.5c0,7.2,1.8,14.2,5.4,20.4
	c3.2,5.9,7.2,11.5,9,18c1.9,6.9,0.3,13.9-3.5,19.8c-4.6,7.3-11.6,12.5-18.7,17.3c-7.8,5.4-16,10.8-20.7,19.2c-0.6,1-2.1,0.1-1.6-1
	c8.3-14.7,25.7-20,36.3-32.4c5-5.8,8.2-13.2,6.7-20.9c-1.3-6.8-5.5-12.6-8.8-18.5c-3.5-6.2-5.8-12.6-6.1-19.8
	c-0.3-7.3,1.2-14.7,3.4-21.6c5.1-15.8,12.6-30.6,22.3-44c11-15.4,24.5-28.8,40-39.6C539.9,67.8,540.7,69.4,539.8,70.1L539.8,70.1z"
	/>
<path class="st1" d="M482.3,139.3c-10.7-5.4-15.8-17.8-12.2-29.2c0.4-1.1,2.1-0.6,1.7,0.5c-3.4,10.6,1.4,22.1,11.4,27.1
	C484.3,138.3,483.4,139.8,482.3,139.3L482.3,139.3z"/>
<path class="st1" d="M478.5,189.2c11.3-3.6,20.8-11.3,26.7-21.5c0.6-1,2.1-0.1,1.6,1c-6.1,10.7-16.1,18.7-27.8,22.4
	C477.8,191.3,477.3,189.5,478.5,189.2L478.5,189.2z"/>
<path class="st1" d="M511.2,94.8c3.6,2.9,8.5,3.8,12.9,2.4c1.1-0.4,1.5,1.4,0.4,1.8c-4.9,1.6-10.2,0.6-14.3-2.6
	c-0.4-0.3-0.5-0.8-0.3-1.3C510.2,94.7,510.7,94.5,511.2,94.8L511.2,94.8z"/>
<path class="st0" d="M638.7,168c-0.7,0.2-1.4,0.5-2.1,0.8c-9.3,3.4-18.2,7.5-26.8,12.3c-0.7,0.4-1.3,0.7-2,1.1
	c-20.6,11.9-38.8,27.4-53.7,45.9c-5.9,7.4-11.3,15.2-16,23.3c-6.5,11.3-12.7,24.1-22.3,32.3c-1,0.9-2,1.7-3.1,2.4l-65.6-15.5
	c-0.1-0.1-0.3-0.2-0.4-0.3l-2.6-0.5c0.2-0.4,0.4-0.9,0.7-1.3c0.1-0.3,0.3-0.5,0.4-0.8c0.1-0.2,0.2-0.3,0.2-0.5
	c0-0.1,0.1-0.1,0.1-0.2c0.1-0.2,0.1-0.3,0.2-0.4c1.3-2.5,2.6-5,3.9-7.6c0,0,0,0,0,0c10.2-19.1,22.1-37.6,36.4-53.6
	c0.4-0.5,0.9-1,1.3-1.5c6.5-7.2,13.6-13.9,21.1-19.9c4.2-3.3,8.5-6.4,12.9-9.2c11.6-7.4,24.2-12.9,37.5-16.3
	c26.5-6.9,54.8-5.2,78.1,8.4C637.6,167.3,638.1,167.6,638.7,168z"/>
<path class="st1" d="M638.4,168.8c-34.2-1.2-67.9,8.3-96.3,27.3c-6.1,4.1-11.9,8.8-16.4,14.6c-4.4,5.7-7.1,12.5-8,19.6
	c-0.9,6.6-1.1,13.5-3.7,19.8c-2.7,6.6-8.1,11.3-14.7,13.8c-8.1,3-16.8,2.9-25.3,2.6c-9.4-0.4-19.3-1-28.1,2.9
	c-1.1,0.5-1.7-1.2-0.7-1.7c15.4-6.7,32.5-0.5,48.5-4c7.5-1.7,14.5-5.6,17.9-12.7c3-6.2,3.2-13.3,4.1-20c0.9-7.1,3-13.6,7.1-19.5
	c4.2-6,9.8-11,15.8-15.2c13.5-9.5,28.5-16.9,44.3-21.8c18-5.7,36.9-8.2,55.7-7.5C639.8,167,639.6,168.8,638.4,168.8L638.4,168.8z"/>
<path class="st1" d="M550.9,189.5c-5.2-10.7-1.9-23.7,7.8-30.6c1-0.7,2.1,0.8,1.1,1.5c-9.1,6.4-12.2,18.5-7.2,28.5
	C553.1,189.8,551.4,190.5,550.9,189.5L550.9,189.5z"/>
<path class="st1" d="M517.7,226.9c11.2,3.9,23.4,3.5,34.3-1.1c1.1-0.5,1.7,1.2,0.7,1.7c-11.3,4.8-24.1,5.2-35.7,1.1
	C515.9,228.2,516.6,226.5,517.7,226.9z"/>
<path class="st1" d="M600.7,171.3c1.1,4.5,4.5,8.1,8.9,9.7c1.1,0.4,0.4,2-0.7,1.7c-4.8-1.7-8.5-5.7-9.8-10.7c-0.2-0.5,0.1-1,0.5-1.2
	C600,170.6,600.5,170.8,600.7,171.3L600.7,171.3z"/>
<path class="st0" d="M70.1,500.5c-37.5-17.3-68.3-53.8-69.2-95.1c35.5,27.5,79.7,41.5,124.6,39.6c17.3-0.8,36.5-3.5,50.4,6.9
	c8.6,6.4,13.5,17,15.2,27.6c1.7,10.6,0.7,21.5-0.3,32.3l1,2.5C150.7,518.8,107.7,517.8,70.1,500.5z"/>
<path class="st1" d="M1.8,405.3c17.4,29.4,43.7,52.6,75,66.3c6.7,2.9,13.8,5.2,21.2,5.9c7.2,0.6,14.3-0.8,20.8-3.9
	c6.1-2.8,12-6.4,18.6-7.6c7-1.3,13.9,0.7,19.5,4.9c6.9,5.2,11.6,12.6,15.8,19.9c4.8,8.2,9.6,16.7,17.6,22.1c1,0.7-0.1,2.1-1.1,1.5
	c-14-9.4-18-27.1-29.6-38.7c-5.4-5.4-12.5-9.2-20.3-8.2c-6.8,0.8-12.9,4.5-19.1,7.4c-6.4,3-13,4.8-20.2,4.5
	c-7.3-0.3-14.5-2.4-21.3-5.1c-15.3-6.2-29.6-14.9-42.2-25.5C22.1,436.8,9.7,422.3,0.1,406C-0.5,405,1.2,404.3,1.8,405.3L1.8,405.3z"
	/>
<path class="st1" d="M66.5,467.8c-6.2,10.2-18.9,14.4-30,10c-1.1-0.4-0.4-2.1,0.6-1.7c10.3,4.2,22.2,0.2,27.9-9.3
	C65.6,465.7,67.1,466.8,66.5,467.8L66.5,467.8z"/>
<path class="st1" d="M115.9,475.4c-2.7-11.5-9.7-21.6-19.5-28.2c-1-0.7,0.1-2.1,1.1-1.5c10.2,6.9,17.4,17.4,20.2,29.4
	C117.9,476.3,116.1,476.6,115.9,475.4L115.9,475.4z"/>
<path class="st1" d="M24.2,435.7c3.2-3.4,4.4-8.2,3.3-12.7c-0.3-1.1,1.5-1.4,1.8-0.3c1.2,5-0.2,10.3-3.7,14
	c-0.3,0.4-0.9,0.5-1.3,0.2C24,436.6,23.9,436.1,24.2,435.7L24.2,435.7z"/>
<path class="st0" d="M106.9,314c0.2,0.7,0.4,1.4,0.6,2.1c2.7,9.5,6.1,18.7,10.3,27.7c0.3,0.7,0.6,1.4,1,2.1
	c10.3,21.4,24.4,40.7,41.7,57c6.9,6.5,14.3,12.4,22.1,17.7c10.8,7.4,23,14.5,30.5,24.7c0.8,1.1,1.5,2.2,2.2,3.3l-20.4,64.2
	c-0.1,0.1-0.2,0.3-0.3,0.4l-0.7,2.6c-0.4-0.2-0.9-0.5-1.3-0.8c-0.2-0.1-0.5-0.3-0.7-0.4c-0.2-0.1-0.3-0.2-0.5-0.3
	c-0.1,0-0.1-0.1-0.1-0.1c-0.2-0.1-0.3-0.2-0.4-0.2c-2.4-1.5-4.8-3-7.2-4.5c0,0,0,0,0,0c-18.3-11.6-35.8-24.8-50.7-40.3
	c-0.4-0.5-0.9-0.9-1.4-1.4c-6.7-7-12.8-14.6-18.2-22.6c-3-4.4-5.7-8.9-8.2-13.6c-6.5-12.1-11-25.1-13.4-38.6
	c-4.8-26.9-1-55,14.2-77.3C106.1,315.1,106.5,314.6,106.9,314z"/>
<path class="st1" d="M107.6,314.4c-3.8,34,3.2,68.3,20,98.1c3.6,6.4,7.9,12.5,13.3,17.4c5.4,4.8,11.9,8,18.9,9.4
	c6.5,1.4,13.4,2.1,19.5,5.1c6.4,3.2,10.6,8.9,12.6,15.7c2.4,8.3,1.7,17,0.7,25.4c-1.1,9.4-2.4,19.1,0.8,28.3
	c0.4,1.1-1.4,1.6-1.7,0.5c-5.5-15.9,2-32.5-0.4-48.7c-1.1-7.6-4.5-14.9-11.3-18.8c-6-3.5-13-4.2-19.7-5.6c-7-1.5-13.3-4-18.9-8.5
	c-5.7-4.6-10.2-10.6-14-16.9c-8.5-14.2-14.7-29.7-18.3-45.8c-4.3-18.4-5.4-37.4-3.3-56.2C106,312.8,107.8,313.3,107.6,314.4z"/>
<path class="st1" d="M121.6,403.2c-11.1,4.4-23.8,0.1-30-10.1c-0.6-1,0.9-2,1.5-1c5.7,9.6,17.6,13.5,27.9,9.4
	C122.2,401.1,122.7,402.8,121.6,403.2L121.6,403.2z"/>
<path class="st1" d="M156.5,439.1c4.8-10.8,5.3-23.1,1.5-34.3c-0.4-1.1,1.4-1.6,1.7-0.5c4,11.7,3.4,24.4-1.6,35.7
	C157.6,441,156,440.2,156.5,439.1L156.5,439.1z"/>
<path class="st1" d="M107.3,352.2c4.6-0.8,8.5-3.9,10.3-8.1c0.5-1.1,2.1-0.2,1.6,0.9c-2.1,4.7-6.3,8.1-11.4,9
	c-0.5,0.1-1-0.1-1.1-0.6C106.5,352.8,106.8,352.3,107.3,352.2L107.3,352.2z"/>
<path class="st0" d="M156.6,272.2c-33.2-32.6-47.2-66.7-39.4-95.9c9.9-37.5,54-63.4,120.9-71.1l0.2,2.1
	c-66,7.6-109.4,32.9-119.1,69.5c-7.5,28.4,6.3,61.7,38.9,93.8L156.6,272.2z"/>
<path class="st0" d="M476.6,388.1c-41.4,0-86.4-6.2-131.1-18c-55.3-14.6-105.9-36.7-146.5-63.8l1.2-1.8c40.4,27,90.8,49,145.9,63.6
	c49.7,13.2,99.8,19.3,144.9,17.7l0.1,2.2C486.2,388,481.4,388.1,476.6,388.1z"/>
<path class="st0" d="M571.5,374.5l-0.7-2c37-12.5,60.2-32.7,67-58.3c8.6-32.6-10.1-70.4-52.8-106.5
	c-42.9-36.3-104.7-66.3-174.1-84.7l0.6-2.1c69.7,18.4,131.8,48.7,174.9,85.2c43.3,36.6,62.3,75.2,53.5,108.7
	C632.9,341,609.3,361.7,571.5,374.5z"/>
<path class="st0" d="M231.6,389c-81.3-36.1-144-82.9-176.5-131.8l1.8-1.2c32.2,48.6,94.6,95.1,175.6,131L231.6,389z"/>
<path class="st0" d="M517.5,451.5c-8.4,0-16.9-0.2-25.6-0.6l0.1-2.2c64.7,2.8,121.9-4.9,165.2-22.4l0.8,2
	C620.3,443.6,572.1,451.5,517.5,451.5z"/>
<path class="st0" d="M470.4,107.1c-13.4-4.4-27.3-8.5-41.1-12.1C349.7,73.9,271.5,66.4,203,73.4l-0.2-2.2
	c68.7-6.9,147.2,0.6,227,21.7c13.9,3.7,27.7,7.8,41.2,12.1L470.4,107.1z"/>
<path class="st0" d="M105.7,275.4c-33.2-32.6-47.2-66.7-39.4-95.9c9.9-37.5,54-63.4,120.9-71.1l0.2,2.1
	c-66,7.6-109.4,32.9-119.1,69.5c-7.5,28.4,6.3,61.7,38.9,93.8L105.7,275.4z"/>
<path class="st0" d="M425.7,391.3c-41.4,0-86.4-6.2-131.1-18c-55.3-14.6-105.9-36.7-146.5-63.8l1.2-1.8c40.4,27,90.8,49,145.9,63.6
	c49.7,13.2,99.8,19.3,144.9,17.7l0.1,2.2C435.4,391.2,430.6,391.3,425.7,391.3z"/>
<path class="st0" d="M520.7,377.7l-0.7-2c37-12.5,60.2-32.7,67-58.3c8.6-32.6-10.1-70.4-52.8-106.5
	c-42.9-36.3-104.7-66.3-174.1-84.7l0.6-2.1c69.7,18.4,131.8,48.7,174.9,85.2c43.3,36.6,62.3,75.2,53.5,108.7
	C582.1,344.3,558.4,364.9,520.7,377.7z"/>
<path class="st0" d="M180.7,392.2c-81.3-36.1-144-82.9-176.5-131.8l1.8-1.2c32.2,48.6,94.6,95.1,175.6,131L180.7,392.2z"/>
<path class="st0" d="M466.7,454.7c-8.4,0-16.9-0.2-25.6-0.6l0.1-2.2c64.7,2.8,121.9-4.9,165.2-22.4l0.8,2
	C569.4,446.8,521.2,454.7,466.7,454.7z"/>
<path class="st0" d="M419.5,110.4c-13.4-4.4-27.3-8.5-41.1-12.1c-79.6-21.1-157.8-28.5-226.2-21.6l-0.2-2.2
	c68.7-6.9,147.2,0.6,227,21.7c13.9,3.7,27.7,7.8,41.2,12.1L419.5,110.4z"/>
<path class="st2" d="M204.6,271c-9.3,0-16.8,7.5-16.8,16.8c-6.4,46.9-8.5,94.3-6.4,141.6c0.1,3,0.3,5.8,0.4,8.4
	c0.2,4.4,0.5,9,0.9,13.8c0.2,2.8,0.4,5.6,0.7,8.4c0.4,4.6,0.8,9.2,1.3,13.8c0.3,2.8,0.6,5.6,0.9,8.4c0.6,5.5,1.3,11.2,2.2,17.3
	c0,9.3,7.5,16.8,16.8,16.8h281.2c9.3,0,16.8-7.5,16.8-16.8l0-0.1c1.3-5.7,2.4-11.5,3.5-17.3c0.6-3,1-5.8,1.5-8.4
	c0.8-4.8,1.5-9.5,2.1-13.8c0.4-2.9,0.8-5.8,1.1-8.4c0.5-4.4,1-8.9,1.4-13.8c0.2-2.7,0.5-5.4,0.7-8.4v0c3.4-47.4,0-95.1-10.3-141.5
	l0-0.1c0-9.3-7.5-16.8-16.8-16.8L204.6,271z"/>
<path class="st3" d="M356.2,342.7c-60.9,0-125.5-5.5-210-16.6h0c-9.1,0-16.7-6.9-17.7-15.9c-0.1-0.7-0.1-1.3-0.1-2v-50.8
	c0-0.1,0-0.2,0-0.3c0.2-9.7,8.1-17.5,17.8-17.5c147-20,236.3-20,398.1,0h0c9.7,0.1,17.6,7.9,17.8,17.6c0,0.1,0,0.2,0,0.3v50.8
	c0,0.7,0,1.3-0.1,2c-1,9-8.6,15.9-17.7,15.9C474.4,337.2,417.1,342.7,356.2,342.7z"/>
<path class="st2" d="M365.9,378h-37c-9.8,0-17.7-8-17.7-17.7V226c0-9.8,8-17.7,17.7-17.7h37c9.8,0,17.7,8,17.7,17.7v134.3
	C383.7,370.1,375.7,378,365.9,378z"/>
<path class="st2" d="M449.9,182.5c-0.3-2.5-0.7-5-1.4-7.5c-0.7-2.4-1.6-4.8-2.7-7.1c-3.9-8.5-10.6-15.4-18.9-19.6
	c-10.3-5.1-22.1-5.5-33.2-3c-9.3,2.1-18.1,6.2-25.6,12c-3.9,3-7.5,6.3-10.7,10.1c-3.3,3.9-9.4,14.8-9.8,15.8
	c-3.5-7.8-8.4-14.9-14.6-20.9c-7.2-6.8-15.8-12-25.1-15.2c-5-1.7-10.2-2.7-15.4-3.1c-5.6-0.5-11.1,0-16.5,1.4
	c-9.7,2.7-18,8.8-23.6,17.2c-5.3,7.8-7.8,17.1-7.4,26.5c0.3,4.7,1.3,9.4,3,13.8c0.9,2.4,2,4.7,3.3,6.9c1.3,2.2,2.8,4.3,4.4,6.3
	c6.3,7.8,14.9,13.5,24.5,16.3c10.3,3.2,21.2,3.3,31.7,1.8c10.8-1.5,21.3-5,31.5-8.9c1.4-0.5,2.7-1,4.1-1.6c9.1,3.5,18.2,6.9,27.8,9
	c10.7,2.6,21.8,3,32.7,1.3c10.1-1.7,19.6-6.3,27.1-13.2c7-6.6,11.9-15,14-24.4C450.1,192,450.4,187.2,449.9,182.5z M309,223.9
	c-5.9,0.8-11.8,0.8-17.7,0.1c-4.2-0.6-8.3-1.7-12.3-3.3c-9.3-3.9-16.8-11.3-20.7-20.6c-1.2-2.9-2-6-2.5-9.1c-0.3-2.8-0.3-5.6,0-8.4
	c0.5-2.9,1.2-5.8,2.3-8.5c1.2-2.7,2.7-5.2,4.4-7.6c1.7-2.1,3.6-4,5.7-5.7c2-1.5,4.1-2.7,6.4-3.7c2.7-1,5.5-1.8,8.3-2.2
	c3.9-0.4,7.8-0.4,11.6,0.1c4.6,0.7,9.1,1.9,13.4,3.7c4.6,2,8.9,4.5,12.9,7.5c3.7,2.9,7,6.3,10,9.9c2.9,3.9,5.3,8.1,7.3,12.5
	c1.9,4.6,3.2,9.5,3.9,14.4l0,0.1c-0.3,2.5-0.4,5-0.4,7.5c0,1,0,1.9,0.1,2.9c-0.5,0.4-0.8,1-1.1,1.5c-7.5,3-15.3,5.4-23.1,7.3
	C314.7,222.9,311.9,223.5,309,223.9z M439,191c-0.5,3.1-1.3,6.2-2.5,9.1c-3.9,9.3-11.4,16.7-20.7,20.6c-4,1.6-8.1,2.7-12.3,3.3
	c-5.9,0.7-11.8,0.6-17.7-0.1c-10.4-1.5-20.5-4.8-30.3-8.5c-0.4-0.2-0.8-0.3-1.2-0.5c-0.3-0.6-0.6-1.1-1.1-1.5
	c0.2-3.5,0.1-7-0.3-10.4c0.7-4.9,2-9.7,3.9-14.4c1.9-4.4,4.3-8.6,7.3-12.5c2.9-3.7,6.3-7,10-9.9c4-3,8.3-5.5,12.9-7.5
	c4.3-1.7,8.8-3,13.4-3.7c3.9-0.5,7.8-0.5,11.6-0.1c2.9,0.4,5.6,1.2,8.3,2.2c2.3,1,4.4,2.3,6.4,3.7c2.1,1.7,4,3.6,5.7,5.7
	c1.7,2.3,3.2,4.9,4.4,7.6c1.1,2.7,1.9,5.6,2.3,8.5C439.4,185.5,439.3,188.3,439,191z"/>
<circle class="st3" cx="234.9" cy="377.5" r="6.5"/>
<circle class="st3" cx="281.4" cy="361.3" r="6.5"/>
<circle class="st3" cx="260.9" cy="412.1" r="6.5"/>
<circle class="st3" cx="453.4" cy="377.5" r="6.5"/>
<circle class="st3" cx="406.9" cy="361.3" r="6.5"/>
<circle class="st3" cx="427.4" cy="412.1" r="6.5"/>
<circle class="st3" cx="458.8" cy="491.1" r="6.5"/>
<circle class="st3" cx="475" cy="444.6" r="6.5"/>
<circle class="st3" cx="424.2" cy="465.1" r="6.5"/>
<circle class="st3" cx="272.8" cy="491.1" r="6.5"/>
<circle class="st3" cx="289" cy="444.6" r="6.5"/>
<circle class="st3" cx="238.2" cy="465.1" r="6.5"/>
<path id="e3b13650-ec26-4d46-b148-6e027bc06f3e-401" class="st4" d="M424.6,39.2c5,2.1,10.7,1.4,15.1-1.8c5.5-4.1,7.5-11.2,9.3-17.9
	L454.1,0l-8.6,5.2c-6.2,3.8-12.5,7.6-17,13.3s-6.7,13.7-3.8,20.3"/>
<path id="fe24b413-2f3e-41ab-87c6-b6db4596196d-402" class="st4" d="M194.7,206.6c3.4-4.2,4.3-9.9,2.4-15
	c-2.4-6.4-8.7-10.3-14.6-13.8L165,167.6l2.7,9.7c1.9,7,3.9,14.1,8.2,20s11.3,10.2,18.5,9.2"/>
<path id="a5193a92-e661-4e54-a5ba-e6f2c93163f3-403" class="st4" d="M604.6,508.4c3.4-4.2,4.3-9.9,2.4-15
	c-2.4-6.4-8.7-10.3-14.6-13.8l-17.5-10.3l2.7,9.7c1.9,7,3.9,14.1,8.2,20s11.3,10.2,18.5,9.2"/>
<circle class="st5" cx="274.9" cy="116.8" r="8.7"/>
<circle class="st5" cx="44.6" cy="372.1" r="8.7"/>
<circle class="st5" cx="639.4" cy="301.8" r="8.7"/>
<circle class="st6" cx="35.9" cy="154.7" r="8.7"/>
<circle class="st6" cx="571.3" cy="401.3" r="8.7"/>
<circle class="st6" cx="588.6" cy="138.5" r="8.7"/>
<path class="st2" d="M209.2,284.7c-0.7,1.2-2.6,1-3.6,0.3c-1.4-1-1-3,0-4.2c3.1-3.7,8.2,0.2,8.9,3.9c0.5,3.7-1.2,7.3-4.4,9.2
	c-3.5,2.1-8.1,1-11.2-1.5c-6.3-5.2-4.6-15.7,2.4-19.5c4.5-2.4,10.2-1.4,14.6,0.7c5,2.3,9.3,5.8,13.9,8.7
	c10.1,6.3,21.5,10.2,33.4,11.4c2.1,0.2,2.1-3,0-3.2c-6.6-0.7-13-2.2-19.2-4.6c-6.1-2.5-11.9-5.6-17.2-9.5
	c-5.4-3.7-11.1-7.3-17.8-7.9c-5.5-0.6-10.9,1.7-14.2,6.2c-2.9,4-3.8,9.1-2.4,13.8c1.7,5,6,8.6,11.1,9.6c5,0.9,10.1-1.4,12.6-5.8
	c2.5-4.3,2.4-10-1.3-13.5c-2.2-2.2-5.4-3.1-8.4-2.3c-2.8,0.9-4.7,3.4-5,6.3c-0.4,5.5,7.5,8.3,10.5,3.6
	C213.1,284.6,210.3,283,209.2,284.7L209.2,284.7z"/>
<path class="st2" d="M486.7,284.7c0.7,1.2,2.6,1,3.6,0.3c1.4-1,1-3,0-4.2c-3.1-3.7-8.2,0.2-8.9,3.9c-0.5,3.7,1.2,7.3,4.4,9.2
	c3.5,2.1,8.1,1,11.2-1.5c6.3-5.2,4.6-15.7-2.4-19.5c-4.5-2.4-10.2-1.4-14.6,0.7c-5,2.3-9.3,5.8-13.9,8.7
	c-10.1,6.3-21.5,10.2-33.4,11.4c-2.1,0.2-2.1-3,0-3.2c6.6-0.7,13-2.2,19.2-4.6c6.1-2.5,11.9-5.6,17.2-9.5c5.4-3.7,11.1-7.3,17.8-7.9
	c5.5-0.6,10.9,1.7,14.2,6.2c2.9,4,3.8,9.1,2.4,13.8c-1.7,5-6,8.6-11.1,9.6c-5,0.9-10.1-1.4-12.6-5.8c-2.5-4.3-2.4-10,1.3-13.5
	c2.2-2.2,5.4-3.1,8.4-2.3c2.8,0.9,4.7,3.4,5,6.3c0.4,5.5-7.5,8.3-10.5,3.6C482.8,284.6,485.6,283,486.7,284.7L486.7,284.7z"/>
<polygon class="st7" points="96.3,39.3 92,44.7 76.9,35.7 81.1,30.4 "/>
<polygon class="st7" points="112.1,62.4 115.9,68.1 100,76 96.2,70.4 "/>
<polygon class="st7" points="128.6,37.9 136.2,38.1 135.4,54 127.8,53.7 "/>
<polygon class="st7" points="631.7,370.3 627.4,375.7 612.2,366.7 616.5,361.3 "/>
<polygon class="st7" points="647.5,393.4 651.3,399 635.3,407 631.6,401.3 "/>
<polygon class="st7" points="664,368.8 671.5,369.1 670.8,384.9 663.2,384.7 "/>
</svg>
