<?xml version="1.0" encoding="utf-8"?>
<!-- Generator: Adobe Illustrator 26.0.3, SVG Export Plug-In . SVG Version: 6.00 Build 0)  -->
<svg version="1.1" id="Calque_1" xmlns="http://www.w3.org/2000/svg" xmlns:xlink="http://www.w3.org/1999/xlink" x="0px" y="0px"
	 viewBox="0 0 1086 811.4" style="enable-background:new 0 0 1086 811.4;" xml:space="preserve">
<style type="text/css">
	.st0{opacity:0.1;}
	.st1{fill:#3F3D56;}
	.st2{fill:#6C63FF;}
	.st3{opacity:0.1;enable-background:new    ;}
	.st4{fill:#1F7F5C;}
	.st5{fill:#30A17D;}
	.st6{fill:url(#SVGID_1_);}
	.st7{fill:#A0616A;}
	.st8{fill:#8E5362;}
	.st9{fill:#2F2E41;}
	.st10{fill:#FF5757;}
	.st11{fill:#FFC1C7;}
	.st12{fill:#F86D70;}
</style>
<g class="st0">
	<ellipse class="st1" cx="207.1" cy="629.9" rx="18" ry="23.5"/>
	<path class="st1" d="M221.3,529.1c2.5-4.4,3.8-9.3,3.8-14.4c0-13-8.1-23.6-18-23.6s-18,10.5-18,23.6c0,5,1.3,10,3.8,14.4
		c-5,8.9-5,19.8,0,28.8c-5,8.9-5,19.8,0,28.8c-2.5,4.4-3.8,9.4-3.8,14.4c0,13,8.1,23.5,18,23.5s18-10.5,18-23.5c0-5-1.3-10-3.8-14.4
		c5-8.9,5-19.8,0-28.8C226.4,548.9,226.4,538,221.3,529.1L221.3,529.1z"/>
	<ellipse class="st1" cx="207.1" cy="485.9" rx="18" ry="23.5"/>
	<ellipse class="st1" cx="207.1" cy="457.2" rx="18" ry="23.5"/>
	<path class="st2" d="M139.7,260.2c-2.5-3.1-4.7-6.4-6.7-9.9l47.3-7.8l-51.1,0.4c-9.9-21.6-10.5-46.3-1.6-68.3l68.6,35.6l-63.3-46.5
		c23.8-41.2,76.6-55.3,117.8-31.4s55.3,76.6,31.4,117.8c-2,3.5-4.3,6.9-6.9,10.1c3.8,4.9,7.1,10.1,9.8,15.7l-61.4,31.9l65.4-22
		c9.3,27.6,4.1,58-13.9,80.9c29.4,37.4,22.9,91.6-14.5,121c-37.4,29.4-91.6,22.9-121-14.5c-24.6-31.3-24.6-75.3,0-106.6
		C115.1,335.4,115.1,291.4,139.7,260.2L139.7,260.2z"/>
	<path class="st3" d="M293.6,313.4c0,19.3-6.5,38.1-18.4,53.3c29.4,37.4,22.9,91.6-14.5,121c-37.4,29.4-91.6,22.9-121-14.5
		c-24.6-31.3-24.6-75.3,0-106.6C128.2,352.1,293.6,303.8,293.6,313.4z"/>
</g>
<g class="st0">
	<ellipse class="st1" cx="861.7" cy="629.9" rx="18" ry="23.5"/>
	<path class="st1" d="M875.9,529.1c2.5-4.4,3.8-9.3,3.8-14.4c0-13-8.1-23.6-18-23.6s-18,10.5-18,23.6c0,5,1.3,10,3.8,14.4
		c-5,8.9-5,19.8,0,28.8c-5,8.9-5,19.8,0,28.8c-2.5,4.4-3.8,9.4-3.8,14.4c0,13,8.1,23.5,18,23.5s18-10.5,18-23.5c0-5-1.3-10-3.8-14.4
		c5-8.9,5-19.8,0-28.8C881,548.9,881,538,875.9,529.1L875.9,529.1z"/>
	<ellipse class="st1" cx="861.7" cy="485.9" rx="18" ry="23.5"/>
	<ellipse class="st1" cx="861.7" cy="457.2" rx="18" ry="23.5"/>
	<path class="st2" d="M794.3,260.2c-2.5-3.1-4.7-6.4-6.7-9.9l47.3-7.8l-51.1,0.4c-9.9-21.6-10.5-46.3-1.7-68.3l68.6,35.6l-63.3-46.5
		c23.8-41.2,76.6-55.3,117.8-31.4c41.2,23.8,55.3,76.6,31.4,117.8c-2,3.5-4.3,6.9-6.9,10.1c3.8,4.9,7.1,10.1,9.8,15.7l-61.4,31.9
		l65.4-22c9.3,27.6,4.1,58-13.9,80.9c29.4,37.4,22.9,91.6-14.5,121c-37.4,29.4-91.6,22.9-121-14.5c-24.6-31.3-24.6-75.3,0-106.6
		C769.7,335.4,769.7,291.4,794.3,260.2L794.3,260.2z"/>
	<path class="st3" d="M948.2,313.4c0,19.3-6.5,38.1-18.4,53.3c29.4,37.4,22.9,91.6-14.5,121c-37.4,29.4-91.6,22.9-121-14.5
		c-24.6-31.3-24.6-75.3,0-106.6C782.8,352.1,948.2,303.8,948.2,313.4z"/>
</g>
<g class="st0">
	<ellipse class="st1" cx="496.2" cy="629.9" rx="18" ry="23.5"/>
	<path class="st1" d="M510.4,529.1c2.5-4.4,3.8-9.3,3.8-14.4c0-13-8-23.6-18-23.6s-18,10.5-18,23.6c0,5,1.3,10,3.8,14.4
		c-5,8.9-5,19.8,0,28.8c-5,8.9-5,19.8,0,28.8c-2.5,4.4-3.8,9.4-3.8,14.4c0,13,8.1,23.5,18,23.5c9.9,0,18-10.5,18-23.5
		c0-5-1.2-10-3.8-14.4c5-8.9,5-19.8,0-28.8C515.4,548.9,515.4,538,510.4,529.1L510.4,529.1z"/>
	<ellipse class="st1" cx="496.2" cy="485.9" rx="18" ry="23.5"/>
	<ellipse class="st1" cx="496.2" cy="457.2" rx="18" ry="23.5"/>
	<path class="st2" d="M428.9,260.2c-2.5-3.1-4.7-6.4-6.7-9.9l47.3-7.8l-51.1,0.4c-9.9-21.6-10.5-46.3-1.6-68.3l68.6,35.6L422,163.7
		c23.9-41.2,76.6-55.2,117.8-31.4c41.2,23.9,55.2,76.6,31.4,117.8c-2,3.5-4.3,6.9-6.8,10c3.8,4.9,7.1,10.1,9.8,15.7l-61.4,31.9
		l65.4-22c9.3,27.6,4.1,58-13.9,80.9c29.4,37.4,22.9,91.6-14.5,121c-37.4,29.4-91.6,22.9-121-14.5c-24.6-31.3-24.6-75.3,0-106.6
		C404.2,335.4,404.2,291.4,428.9,260.2L428.9,260.2z"/>
	<path class="st3" d="M582.7,313.4c0,19.3-6.5,38.1-18.4,53.3c29.4,37.4,22.9,91.6-14.5,121c-37.4,29.4-91.6,22.9-121-14.5
		c-24.6-31.3-24.6-75.3,0-106.6C417.3,352.1,582.7,303.8,582.7,313.4z"/>
</g>
<path class="st1" d="M318.2,545.2c2.3-4,3.5-8.6,3.5-13.3c0-12-7.4-21.7-16.6-21.7s-16.6,9.7-16.6,21.7c0,4.7,1.2,9.2,3.5,13.3
	c-4.6,8.2-4.6,18.3,0,26.6c-4.6,8.2-4.6,18.3,0,26.6c-4.6,8.2-4.6,18.3,0,26.5c-2.3,4-3.5,8.6-3.5,13.3c0,12,7.4,21.7,16.6,21.7
	s16.6-9.7,16.6-21.7c0-4.7-1.2-9.2-3.5-13.3c4.6-8.2,4.6-18.3,0-26.5c4.6-8.2,4.6-18.3,0-26.6C322.9,563.5,322.9,553.4,318.2,545.2z
	"/>
<ellipse class="st1" cx="305.1" cy="505.4" rx="16.6" ry="21.7"/>
<ellipse class="st1" cx="305.1" cy="478.8" rx="16.6" ry="21.7"/>
<path class="st4" d="M367.3,297.1c2.3-2.9,4.3-5.9,6.2-9.1l-43.6-7.2l47.2,0.4c9.1-19.9,9.7-42.7,1.5-63L315.2,251l58.4-42.9
	c-22.1-38-70.7-50.9-108.7-28.8c-38,22.1-50.9,70.7-28.8,108.7c1.8,3.2,3.9,6.2,6.2,9.1c-3.5,4.5-6.6,9.4-9.1,14.5l56.6,29.4
	l-60.4-20.3c-8.6,25.5-3.8,53.5,12.8,74.7c-27.1,34.5-21.2,84.5,13.4,111.6c34.5,27.1,84.5,21.2,111.6-13.4
	c22.7-28.8,22.7-69.5,0-98.3C390,366.5,390,325.9,367.3,297.1L367.3,297.1z"/>
<path class="st5" d="M225.3,346.2c0,17.8,6,35.1,17,49.2c-27.1,34.5-21.2,84.5,13.4,111.6c34.5,27.1,84.5,21.2,111.6-13.4
	c22.7-28.8,22.7-69.5,0-98.3C377.9,381.8,225.3,337.3,225.3,346.2z"/>
<ellipse class="st1" cx="528.4" cy="657.2" rx="445.6" ry="26.5"/>
<linearGradient id="SVGID_1_" gradientUnits="userSpaceOnUse" x1="777.7043" y1="110.8331" x2="777.7043" y2="581.4731" gradientTransform="matrix(1 0 0 -1 -57 768.436)">
	<stop  offset="0" style="stop-color:#808080;stop-opacity:0.25"/>
	<stop  offset="0.54" style="stop-color:#808080;stop-opacity:0.12"/>
	<stop  offset="1" style="stop-color:#808080;stop-opacity:0.1"/>
</linearGradient>
<path class="st6" d="M907.7,368.6c-1.9,0.5-3.5,1.9-4.2,3.7h-0.7l-2.6-0.4c0,0-13.6-1.1-16.2-0.9c-1.7,0-3.2-0.9-4.1-2.4l-10.2-8.6
	l-0.8-0.7l1.8-0.6c0,0-27.2-33.8-33.1-34.5c-5.9-0.7-15.6-8.5-15.7-8.6V315c-0.2-1.1-0.4-2.3-0.5-3.5l1.4,0.9l0,0c0-0.4,0-0.8,0-1.2
	l0,0c0.2-4.2,1.6-8.2,4.1-11.6c2.8-3.9,7-7,8.7-11.6c0.7-2,1-4,0.9-6.1c0.1-3.7-0.9-7.4-2.8-10.5c-2-3.2-5.2-5.5-8.9-6.2
	c-0.9,0-1.9,0-2.9-0.4c-5.7-1.3-7.8-9-13.3-10.8c-2.6-0.7-5.5-0.4-7.9,0.8c-2.5,1.1-4.7,2.6-7,3.8c-2.6,1-5,2.3-7.4,3.8l-0.7,0.6
	l0,0l-0.5,0.4l0,0c-0.9,0.9-1.7,2-2.4,3.1v0.2c0,0,0,0.2-0.2,0.4v0.3v0.4v0.3v0.3v0.4v0.3v0.4c0,0.1,0,0.2,0,0.3c0,0,0,0.2,0,0.4
	c0,0.1,0,0.2,0,0.3c0,0.1,0,0.3,0,0.4v0.7c0,0.1,0,0.1,0,0.2v0.6l0,0c0.6,1.4,1.5,2.7,2.6,3.7l-0.3,0.3c-4.7,4.5-7.4,10.8-7.4,17.3
	c0,1.4,0.1,2.9,0.4,4.3c-1.2-0.9-2.6-1.8-4-2.4c-4.7-2.3-9.8-3.5-15-3.5c-6.9-0.4-13.7-1.5-20.4-3.3c0.3,0.6,0.5,1.2,0.7,1.8
	l-1.7-0.9c-5-2.7-10.3-4.5-15.9-5.3c0,0-3.5,0.5-4-7c-0.2-2.3-0.6-4.6-1.3-6.8c-2.5-6.7-4.4-13.6-5.7-20.7l-1.1-10.9
	c0,0,5.3-28.4,2.1-40.4c1.3-3.6,0.1-7.6-3-9.8c-13.4-9.8-26.9,28.5-26.9,28.5l-5,4.9c-1.3-0.8-2.7-1.4-4.3-1.6
	c-2.3,3-3.9,6.5-4.6,10.3c-1,4-7.8,10.5-14.1,16.1c-4.4,3.8-8.6,7.8-12.8,11.8c-3.1,3-10.1,7-25.2,9.6l-6.5,1.1
	c0.5-1.8,0.8-3.6,0.8-5.5c0-9.6-6.7-17.9-16.1-20c0.1-0.5,0.1-1,0-1.5c-0.3-1-0.8-2-1.5-2.8c-2.9-4.2-6.8-7.6-11.4-9.8
	c-2-0.8-4.1-1.1-6.2-1h-1.5c-4.5,0.2-8.7,2.4-11.5,6c-1.7,2.3-2.7,5-4.2,7.4c-2.9,4.4-6.9,8-11.5,10.5c-2.7,1.6-5.6,3.1-8.2,4.9
	c-9.3,7.2-13.7,19-11.3,30.5c1.1,4.9,3.2,9.8,2.6,14.8c-0.7,3.8-2.3,7.4-4.7,10.5c-2.3,3.2-4.1,6.8-5.2,10.5
	c-1,3.8,0.2,7.9,3.2,10.5c1.2,0.7,2.4,1.5,3.5,2.4c0.7,0.8,1.2,1.7,1.7,2.6c3.4,6.2,9.2,10.7,16.1,12.5c1.1,0.3,2.2,0.4,3.3,0.4h0.4
	c2.4,0.5,4.8-0.6,6-2.7c0.1-0.5,0.3-1,0.6-1.5c0.2-0.3,0.6-0.6,1-0.7c0.8,0.2,1.6,0.5,2.4,0.9c3.5,1.8,7.4,2.9,11.4,3.2
	c0.7,0.1,1.3,0.1,2,0c1.4,0.1,2.8-0.1,4.1-0.6c1.2-0.6,2.3-1.6,3.1-2.7l0.5-0.7c-0.9,5.5-2.7,10.9-5.1,15.9c-2.4,4.2-3.7,9-3.8,13.9
	c-0.2,2.5,0.4,5.1,1.5,7.3l0.4-0.8c2.1,3.8,4.7,7.3,7.6,10.5c0.4,5.5,0.1,11-0.7,16.5c-4.1,14,1.1,29.1,13,37.5l4.3,9.5l-17.8,1.3
	c-1.8-0.2-25.1-3.5-25.2,1.2c-0.1,4.7,3.5,51,15.6,47.8c11.3-2.9,7.6-16.4,7-18.2h0.4h-0.4l9-8.5c0.2-1-0.1-2.1-0.7-3l0,0l21.8,1
	l5.1,11.2c0,0,8.7,13.2,1.7,24.3c-7,11.1-14.3,28.5-15.5,39c-1.4,7.4-4.7,14.2-9.6,19.9c-4.1,1.4-19.7,7.5-13.5,16.8
	c7,10.5,30.4,30.9,39.8,30.2c9.4-0.7,5.6-7.5,5.6-7.5l-7.8-7.7c-0.7-7-1-14-0.8-21.1c0.2-2.3-1.3-4.4-3.5-5
	c0.7-5.3,2.6-15.3,6.6-20.8c5.7-7.8,23.7-41.9,23.7-41.9s5.7-5.1,4.5-20.3c-0.5-6.1-0.8-11.5-1-15.7l20.5,0.9c0,0,21.9-2.2,7-25.7
	s-46.6-46.6-46.6-46.6l-0.3-14.6l2.3,0.6c0,0,0-0.5-0.4-1.5h0.4c-2.6-11.6-4.5-23.4-5.8-35.3l1.3,0.6c13.6,15.7,22.8,2.4,22.8,2.4
	s28.8-40.4,25.9-38.7c-0.6,0.3-1.3,0.3-1.9,0l2.1-6.6c0,0,8.5-13-3.8-20.3c-10.1-5.9-9.8,12.7-9.3,19.8l-0.5-0.5
	c0,0-9.6,14.5-14.8,22.6s-9.5,2.8-9.5,2.8l-6.5-7.3c1.1-3,1.6-6.1,1.5-9.2c0.3-4.4-1.3-8.8-4.4-11.9c-3.9-3.6-6.2-8.5-6.6-13.8
	c0-2,0.5-3.9,1.3-5.7l33.9-18c0,0,7,0,16.8-14.7c6.2-9.5,13.1-18.5,20.6-27.1l-0.6-0.8l0.6-0.6c0,0-0.4-0.6-1.1-1.4l5.2-6
	c-0.1,2.7-0.1,5.5,0,8.2l2.7,9.2l1.5,50.9c0,0-1.7,4.9,8.9,9.7c8.9,4.1,23.1,11.1,27.2,13.1c-0.1,0.2-0.2,0.4-0.2,0.6h1.2l0,0l0,0
	c20.6-1.9,19.9,18.7,19.9,18.7s1.4,41.9-4.9,56.5c-4,10.4-5.8,21.5-5.4,32.7c0,0,0.6-3.1,4.2,0.9l-0.2,1.1c-2,10.1-6.2,31.6-7,40.3
	c-0.9,8-2.4,15.8-4.6,23.5l-2.1,38.7l13.2,0.6v1.4c-0.1,1.5-0.9,2.8-2.2,3.5c-4.5,2.5-15.2,11.1-14.3,37.6l-0.5,4.4
	c-0.7,7.2-2.9,14.2-6.4,20.6c-0.3,0.5-0.6,1-0.8,1.5c0-0.3,0.2-0.5,0.4-0.7c0,0-6.9,1.4-5.4,19.9c1.4,18.5,3.5,21.8,6.3,22
	c2.8,0.2,16.6,3.5,15.9-3.2c-0.7-6.7-1.4-22-0.5-24.3s4.6-8.5,1.1-10.1l0,0c1-4.2,1.5-8.6,1.5-13c3.4-5.4,7.3-10.4,11.8-14.9
	c4.9-4.1,7.6-11,9.4-19.8c0-0.6,14.6-10.2,12.4-18.2c-0.4-1.4-0.6-2.5-0.8-3.5c0-0.5,0-1-0.2-1.4h0.3l2.9-17.6v17.2l1.8,0.2v1.4
	l-0.7,16.4c-0.1,3.2-0.9,6.4-2.1,9.3c-5.6,13.1-8.1,27.2-7.3,41.4l-0.2,15.8c-0.5,0-7.7,1.8-6.3,19.7c1.4,18.5,3.5,21.8,6.3,22
	s16.6,3.5,15.9-3.2c-0.7-6.7-1.4-22-0.5-24.3c0.9-2.3,2.6-8.4-1-9.9c0-2.1,0.5-4.1,1.5-5.9c1.5-2.6,6.7-15.1,10.5-24.8
	c4-9.7,6.2-20.1,6.5-30.6v-0.4c0.1-3.5,0.9-7,2.2-10.3c1.6-3.7,2.8-7.5,3.8-11.4c0-0.5,0-0.9,0.2-1.3l3.3,0.4l11.5-49.8
	c0,0,3.1-27,1.6-39.2c0-0.5,0-1-0.2-1.4h0.7c0,0,2.4-6,1.7-31.6c-0.7-25.6,4.7-33.8,4.7-33.8c2.9-9.2,6.2-12.3,8-13.4l0,0
	c0.5-0.3,1-0.5,1.6-0.5l8.7,10l0,0l1.6,1.8l0,0l0.7,0.8c0-0.4,0-0.8,0-1.2c4.6,2.7,15.4,9,21.8,13.5c8.4,5.9,10.5,5.2,18,4.6
	c5-0.8,9.9-2.4,14.4-4.7h0.4c1.1,0.6,2.3,1,3.5,1.4c0,0,11.8,10,12.9-8.3C922.9,364.7,907.7,368.6,907.7,368.6z M601.5,581
	c-1.2-0.4-2.4-0.8-3.5-1.4L601.5,581z M583.1,383.5v2.6l0,0C583,385.3,583,384.4,583.1,383.5z M767.6,614.7v1
	C767.3,615.2,767.2,615.2,767.6,614.7z"/>
<rect x="785.2" y="311.3" class="st2" width="20" height="21.1"/>
<path class="st7" d="M760.8,554.5c-1.8,8.8-4.4,15.6-9.2,19.7c-4.4,4.5-8.3,9.5-11.6,14.8c0,14.4-3.9,18.8-3.9,18.8l-3.9,1.1h-9.7
	c-0.9-2.5-1.6-5.1-2.1-7.7c0.1-1.5,0.6-3,1.5-4.3c3.4-6.3,5.6-13.3,6.3-20.5l0.4-4.3c-0.8-26.4,9.6-34.9,14.1-37.4
	c1.3-0.7,2.1-2,2.2-3.5l0,0l0.8-7.5l26,1.3c-0.3,2.5-0.2,5.1,0.5,7.6c0,1.1,0.5,2.3,0.8,3.7C775.1,544.4,760.9,553.9,760.8,554.5z"
	/>
<path class="st7" d="M805,536.3c-0.8,3.8-2,7.6-3.5,11.2c-1.3,3.3-2.1,6.7-2.2,10.3v0.4c-0.3,10.4-2.5,20.7-6.4,30.4
	c-3.8,9.6-8.9,22-10.5,24.6c-1.5,3.7-1.9,7.8-1,11.7l-14.7-1l0.2-24.6c-0.9-14.1,1.5-28.2,7-41.2c1.2-2.9,1.9-6.1,2-9.2l0.7-16.3
	l0.2-4.8c0,0,25.9-3.7,28.1,2.2C805.5,532,805.5,534.2,805,536.3z"/>
<path class="st8" d="M760.8,554.5c-1.8,8.8-4.4,15.6-9.2,19.7c-4.4,4.5-8.3,9.5-11.6,14.8c0,14.4-3.9,18.8-3.9,18.8l-3.9,1.1h-9.7
	c-0.9-2.5-1.6-5.1-2.1-7.7c0.1-1.5,0.6-3,1.5-4.3c3.4-6.3,5.6-13.3,6.3-20.5l0.4-4.3c-0.8-26.4,9.6-34.9,14.1-37.4
	c1.3-0.7,2.1-2,2.2-3.5l0,0l0.8-7.5l26,1.3c-0.3,2.5-0.2,5.1,0.5,7.6c0,1.1,0.5,2.3,0.8,3.7C775.1,544.4,760.9,553.9,760.8,554.5z"
	/>
<path class="st8" d="M805,536.3c-0.8,3.8-2,7.6-3.5,11.2c-1.3,3.3-2.1,6.7-2.2,10.3v0.4c-0.3,10.4-2.5,20.7-6.4,30.4
	c-3.8,9.6-8.9,22-10.5,24.6c-1.5,3.7-1.9,7.8-1,11.7l-14.7-1l0.2-24.6c-0.9-14.1,1.5-28.2,7-41.2c1.2-2.9,1.9-6.1,2-9.2l0.7-16.3
	l0.2-4.8c0,0,25.9-3.7,28.1,2.2C805.5,532,805.5,534.2,805,536.3z"/>
<path class="st3" d="M772.2,532.7l-27.2-1.3l0.8-7.5l26,1.3C771.5,527.7,771.6,530.2,772.2,532.7z"/>
<path class="st3" d="M805,536.3l-28.1-3.8l0.2-4.8c0,0,25.9-3.7,28.1,2.2C805.6,532,805.6,534.2,805,536.3z"/>
<path class="st9" d="M819.8,485.9l-11.3,49.5l-33.4-4.5v-17l-2.9,17.6l-40-2l2.1-38.3c2.1-7.6,3.6-15.4,4.5-23.3
	c0.8-8.7,4.9-30.1,7-40.1c0.6-3.5,1.1-5.4,1.1-5.4s68.6,14.3,73.1,19.4c1,1.6,1.5,3.4,1.6,5.3C822.9,459.1,819.8,485.9,819.8,485.9z
	"/>
<path class="st3" d="M739.7,489.1c0,0,27-14.1,33.6-11.2L739.7,489.1z"/>
<path class="st3" d="M754.4,443c0,0,22.4,17,23.1,21.7L754.4,443z"/>
<path class="st3" d="M748.3,501.5c0,0,16.2-0.7,21.4,3.5L748.3,501.5z"/>
<path class="st3" d="M777.6,483.3c0,0,7.7,25.2,4.4,32.2c-3.3,6.9-6.8-1.6-6.8-1.6L777.6,483.3z"/>
<path class="st9" d="M766.7,614.9c0,0-7.6,1.2-6.2,19.6c1.4,18.4,3.5,21.6,6.2,21.9c2.7,0.2,16.2,3.5,15.5-3.2
	c-0.7-6.7-1.4-21.9-0.5-24.1c0.9-2.3,2.5-8.4-1-9.9l-0.8,3.5c0,0-7.3-6.8-11.7-1.8c-0.2-1.2-0.5-2.4-0.9-3.5
	C767.1,616.2,766,615.6,766.7,614.9z"/>
<path class="st7" d="M905.7,389c0,0-1.7,0.9-4.3,2.2c-4.4,2.3-9.2,3.9-14.1,4.7c-7,0.6-9.4,1.3-17.6-4.6
	c-6.3-4.5-16.8-10.8-21.4-13.5l-2-1.2h-0.2l0,0l3.8-10.5l13.5-7l3.5,2.9l9.9,8.5c0.9,1.4,2.4,2.3,4,2.3c2.5-0.2,15.9,0.9,15.9,0.9
	l2.5,0.4l5.3,0.9L905.7,389z"/>
<path class="st3" d="M905.7,389c0,0-1.7,0.9-4.3,2.2c-2.7-1.4-6-4-4.7-8.2c1.3-4.3,1.5-6.9,2.4-9l5.3,0.9L905.7,389z"/>
<path class="st7" d="M903.9,370.3c0,0,15-4.3,13.9,13.8c-1.1,18.1-12.7,8.2-12.7,8.2s-9.8-2.6-7.8-9.4
	C899.4,376.1,898.8,372,903.9,370.3z"/>
<path class="st7" d="M748.2,311.6l-15.6,6.6h-0.2h-0.2l-1-0.5c-4-2-17.9-8.9-26.7-13c-10.5-4.8-8.8-9.7-8.8-9.7l-1.5-50.7l-2.6-9.1
	c0,0-1.9-30.9,13.1-38.7c15-7.8,5.3,44.6,5.3,44.6l1.1,10.9c0.8,7,2.1,13.8,4.1,20.6c0.7,2.2,1.1,4.5,1.2,6.7c0.5,7.4,3.9,7,3.9,7
	c5.5,0.9,10.7,2.6,15.6,5.3c1.8,1,3.5,2.1,5.2,3.3L748.2,311.6z"/>
<path class="st8" d="M803.9,335.8l-13.4-1.4c2.4-3.6,4.3-7.5,5.7-11.6c0.2-0.8,0.4-1.6,0.6-2.4c0.5-2,0.2-4.1-0.7-5.9
	c-3.9-5.8,23.3-13.8,23.3-13.8c-0.3,3.2-0.4,6.4-0.3,9.6c0.1,2.2,0.3,4.4,0.7,6.6c0.4,4.2,2.4,8.1,5.6,10.9
	C833.8,333.7,803.9,335.8,803.9,335.8z"/>
<path class="st3" d="M803.9,335.8l-13.4-1.4c2.4-3.6,4.3-7.5,5.7-11.6c1.5,2.2,2.1,2.1,4.3,2.6c0,0,13.5,2,19.3-8.4
	c0.4,4.2,2.4,8.1,5.6,10.9C833.8,333.7,803.9,335.8,803.9,335.8z"/>
<path class="st3" d="M848.3,377.8c0,0.4,0,0.8,0,1.2l-2.1-2.4l0,0l3.8-10.5l13.5-7l3.5,2.9C862,363.5,848.5,369.2,848.3,377.8z"/>
<path class="st3" d="M748.2,311.6l-15.6,6.6h-0.4h-1.2l0.2-0.6c1.3-3.2,7.4-18.6,4.7-25.9c1.8,1,3.5,2.1,5.2,3.3L748.2,311.6z"/>
<path class="st3" d="M821.4,446.9c-6.1-0.6-67-6.2-72.7-15.1c-0.9-1.5-1.9-2.9-3-4.1c0.6-3.5,1.1-5.4,1.1-5.4s68.6,14.3,73.1,19.4
	C820.7,443.3,821.3,445.1,821.4,446.9z"/>
<path class="st10" d="M800.5,326.1c0,0,13.6,2,19.4-8.6c0,0,9.6,7.9,15.4,8.6c5.8,0.7,32.4,34.3,32.4,34.3s-21.4,7-20,18l-10.3-11.7
	c0,0-5.1-0.2-9.4,13.8c0,0-5.3,8-4.6,33.6c0.7,25.6-1.6,31.6-1.6,31.6s-67.2-5.8-73.2-15.2c-6-9.5-7-4.8-7-4.8
	c-0.4-11.1,1.4-22.1,5.3-32.5c6.2-14.5,4.9-56.2,4.9-56.2s0.7-20.5-19.6-18.6c0,0,8.5-19.8,4.6-27.4c6.5,1.8,13.2,2.9,20,3.3
	c5.1,0.1,10.1,1.3,14.7,3.5c2.4,1,4.4,2.6,6.1,4.6c2.4,3.3,6.8,4.5,10.5,3c1.6,5.1,3.6,10,6,14.8l0.8,1.5c0.4,0.7,0.8,1.3,1.2,1.9
	C796.8,325.1,798.6,326.1,800.5,326.1z"/>
<path class="st3" d="M819,310.4c-0.7,1-1.5,2-2.4,2.9c-4.5,4.7-10.8,7.3-17.3,7.3c-0.8,0-1.7,0-2.5,0c0.5-2,0.2-4.1-0.7-5.9
	c-3.9-5.8,23.3-13.8,23.3-13.8C819,304,818.9,307.2,819,310.4z"/>
<path class="st7" d="M823.5,295.7c0,13.4-10.8,24.2-24.2,24.2s-24.2-10.8-24.2-24.2c0-13.4,10.8-24.2,24.2-24.2
	c13.3-0.1,24.1,10.6,24.2,23.8C823.5,295.5,823.5,295.6,823.5,295.7z"/>
<path class="st3" d="M835.4,351l0.5,16.2c0,0,7.2-5.8,7.5-11.4C843.6,350.2,835.4,351,835.4,351z"/>
<path class="st3" d="M777.2,367.1c0,0,19,26.1,30.1,28.7C818.3,398.5,781.3,375.6,777.2,367.1z"/>
<path class="st3" d="M797.3,369.8c0,0,10.5,12,18.2,13.5L797.3,369.8z"/>
<path class="st3" d="M760,400c0,0,19.3,19,30.4,20.1L760,400z"/>
<path class="st3" d="M823.5,295.7c0,6.3-2.6,12.4-7,16.9l-2.7-1.6c-1-0.5-1.9-1.3-2.6-2.2c-0.7-1.6-0.9-3.3-0.6-5
	c0.4-3.6-0.9-7.2-3.5-9.8c-4.6-3.5-12-1.7-16.6-5.2c-1.1-1-2.1-2.1-3-3.3l-4.4-5.8l-0.9-1.1c9.5-9.4,24.8-9.2,34.2,0.3
	C821,283.3,823.5,289.4,823.5,295.7L823.5,295.7z"/>
<path class="st9" d="M784.6,264.8c2.3-1.5,4.7-2.7,7.2-3.8c2.4-1.2,4.6-2.7,7-3.8c2.4-1.2,5.1-1.5,7.7-0.8c5.4,1.9,7.5,9.4,13,10.8
	c0.9,0.2,1.9,0.2,2.8,0.4c3.6,0.7,6.8,2.9,8.8,6.1c1.9,3.2,2.8,6.8,2.8,10.5c0.1,2.1-0.2,4.1-0.9,6c-1.7,4.5-5.8,7.6-8.6,11.5
	c-2.6,3.7-4,8.2-4,12.7l-6.7-4.2c-1-0.5-1.9-1.3-2.6-2.2c-0.7-1.6-0.9-3.3-0.6-5c0.4-3.6-0.9-7.3-3.5-9.8c-4.6-3.5-12-1.6-16.6-5.2
	c-1.1-0.9-2.1-2-3-3.3c-1.4-1.9-2.9-3.9-4.4-5.8c-1.3-1.3-2.4-2.8-3.2-4.4C779.2,271.2,782.3,266.6,784.6,264.8z"/>
<path class="st3" d="M814.7,309.4c-1-0.5-1.9-1.3-2.6-2.2c-0.7-1.6-0.9-3.3-0.6-5c0.4-3.6-0.9-7.2-3.5-9.8
	c-4.6-3.5-11.9-1.7-16.6-5.2c-1.1-1-2.1-2.1-3-3.3c-1.4-1.9-2.9-3.9-4.4-5.8c-1.3-1.3-2.4-2.8-3.2-4.4c-0.3-3.1,0.9-6.2,3.2-8.3
	c-2.7,2.2-4.2,5.6-3.9,9.1c0.8,1.6,1.9,3.1,3.2,4.4c1.4,2,2.9,3.9,4.4,5.8c0.8,1.2,1.8,2.3,3,3.3c4.6,3.5,12,1.6,16.6,5.2
	c2.6,2.6,3.9,6.2,3.5,9.8c-0.3,1.7-0.1,3.4,0.6,5c0.7,0.9,1.6,1.7,2.6,2.2l6.7,4.2c0-0.4,0-0.8,0-1.2L814.7,309.4z"/>
<path class="st9" d="M721.5,597.7c0,0-6.7,1.4-5.4,19.8c1.4,18.4,3.5,21.7,6.2,21.9c2.7,0.2,16.2,3.5,15.5-3.2
	c-0.7-6.7-1.4-21.9-0.5-24.2c0.9-2.3,4.6-8.5,1.1-10l-2.8,3.5c0,0-7.3-6.8-11.7-1.9C724,603.7,719.9,599.2,721.5,597.7z"/>
<path class="st3" d="M725.8,609c1.4,0.7,2.8,1.5,4.3,2.2c1.4,0.7,3,1.1,4.6,1.1c0.7,0,1.3-0.3,1.9-0.7"/>
<path class="st3" d="M585.7,630.5c0.2,0.2,0.5,0.5,0.7,0.7c0.4,0.2,0.9,0.3,1.4,0.3c0.1,0,0.2,0,0.2,0c0.1,0,0.2-0.1,0.2-0.2
	l0.3-0.3"/>
<path class="st11" d="M656.5,320.8c0,0-3.1-29.5,9-22.2c12.1,7.3,3.7,20.1,3.7,20.1l-2.8,9.1L656.5,320.8z"/>
<path class="st11" d="M675.9,226.6l7-6.8c0,0,13.2-38.1,26.4-28.3c13.1,9.8-16.7,34.6-16.7,34.6l-7.9,9.2L675.9,226.6z"/>
<polygon class="st11" points="585.4,368.8 585.9,397.6 618,397.6 615.6,380.8 "/>
<path class="st9" d="M592.9,440.7l1.5,9.2l18.7,41.7c0,0,8.5,13.1,1.6,24.1c-6.9,11-14.1,28.3-15.2,38.7
	c-1.1,10.3-10.2,20.7-10.2,20.7l19.8,8.4c0,0,1.4-16.5,7-24.2c5.7-7.7,23.3-41.7,23.3-41.7s5.6-5.1,4.4-20.1
	c-1.3-15.1-1.1-25.7-1.1-25.7l-2-24L592.9,440.7z"/>
<path class="st3" d="M592.9,440.7l1.5,9.2l18.7,41.7c0,0,8.5,13.1,1.6,24.1c-6.9,11-14.1,28.3-15.2,38.7
	c-1.1,10.3-10.2,20.7-10.2,20.7l19.8,8.4c0,0,1.4-16.5,7-24.2c5.7-7.7,23.3-41.7,23.3-41.7s5.6-5.1,4.4-20.1
	c-1.3-15.1-1.1-25.7-1.1-25.7l-2-24L592.9,440.7z"/>
<path class="st10" d="M591.1,574.1c0,0-21.1,6.4-14.1,17c7,10.6,29.8,30.8,39,30.1c9.2-0.7,5.5-7.5,5.5-7.5l-7.7-7.6
	c-0.7-6.9-0.9-13.9-0.8-20.8c0.6-4.7-6.6-7-7.5-4.1C604.6,583.9,591.1,574.1,591.1,574.1z"/>
<path class="st9" d="M604.4,385.3l-16.8,1.8c-3.1,0.3-5.5,3-5.4,6.2c0.2,6.7,0.3,17.6-0.6,19.3c-4.1,13.9,1,28.9,12.8,37.4l25,7.9
	l-40,2.9l1.3,22.2l6.2-3.5l76,3.5c0,0,21.5-2.2,7-25.6c-14.5-23.4-45.7-46.3-45.7-46.3l-0.4-18.2l-2.3-5.3L604.4,385.3z"/>
<path class="st3" d="M625.2,457.5c5.5-2.4,11.8-2.4,17.3,0H625.2z"/>
<path class="st10" d="M581.3,460.6c0,0-24.6-3.5-24.9,1.2c-0.2,4.7,3.5,50.6,15.3,47.5c11.8-3.1,6.8-18.3,6.8-18.3l8.9-8.5
	c0,0,0.9-4.7-5-4.3L581.3,460.6z"/>
<path class="st12" d="M622.2,331.8L632,343c0,0,4.3,5.3,9.3-2.8c5.1-8,14.5-22.4,14.5-22.4s10.5,9.2,13.3,7.3s-25.4,38.3-25.4,38.3
	s-9,13.2-22.3-2.4l-3.9-1.8L622.2,331.8z"/>
<path class="st10" d="M621.6,331.8l9.8,11.2c0,0,4.3,5.3,9.3-2.8c5.1-8,14.5-22.4,14.5-22.4s10.5,9.2,13.2,7.3S643,363.5,643,363.5
	s-9,13.2-22.4-2.4l-3.9-1.8L621.6,331.8z"/>
<circle class="st11" cx="592.3" cy="266.1" r="20.4"/>
<path class="st3" d="M592.3,277c0,0-17.6,8.3-15.4,22.8c1.4,10.9,2.2,21.8,2.4,32.8c0,0,7.9,11.7-2.6,34.2c0,0-6.7,11.4-2.2,19.7
	c0,0,5-13.1,17.9-3.5c12.9,9.6,33.6,14.1,33.6,14.1s-10.7-47-4.1-53.5c0,0,11.4-16.9,1.1-27.6c-10.3-10.7-5.2-20.7-5.2-20.7
	l33.3-17.9c0,0,7,0,16.5-14.6c6.1-9.4,12.8-18.4,20.1-27c0,0-7-10.5-13.8-11.5c-2.3,3-3.8,6.5-4.5,10.2c-1,4-7.6,10.5-13.7,16
	c-4.3,3.8-8.4,7.8-12.5,11.7c-3.1,3-9.9,7-24.6,9.5C593.9,275.8,592.3,277,592.3,277z"/>
<path class="st10" d="M592.3,275.7c0,0-17.6,8.3-15.4,22.8c1.4,10.9,2.2,21.9,2.4,32.8c0,0,7.9,11.7-2.6,34.2c0,0-6.7,11.4-2.2,19.7
	c0,0,5-13.1,17.9-3.5s33.6,14.1,33.6,14.1s-10.7-47-4.1-53.5c0,0,11.4-16.9,1.1-27.6c-10.3-10.7-5.2-20.7-5.2-20.7l33.3-17.9
	c0,0,7,0,16.5-14.6c6.1-9.4,12.8-18.4,20.1-26.9c0,0-7-10.7-13.8-11.5c-2.3,3-3.8,6.5-4.5,10.3c-1,4-7.6,10.5-13.7,16
	c-4.3,3.8-8.4,7.7-12.5,11.7c-3.1,2.9-9.9,7-24.6,9.5C593.9,274.3,592.3,275.7,592.3,275.7z"/>
<path class="st3" d="M607.4,362.5c0,0,13.6,20,14.1,23.5C621.3,385.9,619.4,364.4,607.4,362.5z"/>
<path class="st3" d="M589.6,295c6,6.8,16.2,7.6,23.2,1.9C605.1,299.5,596.7,298.8,589.6,295z"/>
<path class="st3" d="M596.9,244.8c-0.2-1-0.8-2-1.5-2.8c-2.8-4.2-6.6-7.6-11.1-9.9c-6.3-2.4-13.4-0.3-17.6,5c-1.7,2.2-2.7,5-4.1,7.3
	c-2.8,4.4-6.7,8-11.2,10.5c-2.7,1.7-5.5,3.1-8,4.9c-9.2,7.2-13.5,19-11.1,30.4c1,4.9,3.1,9.7,2.6,14.7c-0.7,3.8-2.3,7.4-4.6,10.5
	c-2.3,3.2-4.1,6.8-5.1,10.5c-1.1,3.8,0.2,7.9,3.2,10.5c1.3,0.7,2.4,1.5,3.5,2.4c0.7,0.8,1.2,1.6,1.7,2.6c3.3,6.1,9,10.6,15.7,12.4
	c3,0.8,7,0.5,8-2.4c0.1-0.5,0.3-1,0.6-1.4c1-1.4,3.1-0.6,4.6,0c3.5,1.8,7.3,2.9,11.2,3.2c1.5,0.2,3.1,0,4.5-0.5
	c1.2-0.6,2.3-1.5,3.1-2.7c3.3-5,5.1-10.8,5.3-16.8c0.6-3.8,0.6-7.8,0-11.6c-1.2-6.1-4.9-11.8-4.3-18c0.6-6.2,5.9-12.1,6.8-18.7
	c0.4-3.5-0.4-6.9-2.4-9.8c-0.7-0.9-1.4-1.9-1.9-2.9c-0.5-1.1-0.3-2.3,0.6-3.2c0.4-0.3,0.9-0.6,1.4-0.7c4.2-1.9,6.9-6,7-10.5
	c0-1.7,0.1-3.4,0.5-5C595,250.4,597.3,247.6,596.9,244.8z"/>
<path class="st9" d="M595.5,244.8c-0.3-1-0.8-2-1.5-2.8c-2.8-4.2-6.6-7.6-11.1-9.9c-6.3-2.4-13.4-0.3-17.6,5
	c-1.5,2.4-2.9,4.8-4.1,7.3c-2.8,4.4-6.7,8-11.2,10.5c-2.7,1.7-5.5,3.1-8,4.9c-9.2,7.2-13.5,19-11.1,30.4c1,4.9,3.2,9.7,2.6,14.7
	c-0.7,3.8-2.3,7.4-4.6,10.5c-2.3,3.2-4,6.8-5.1,10.5c-1.1,3.8,0.2,7.9,3.2,10.5c1.3,0.7,2.4,1.5,3.5,2.4c0.7,0.8,1.2,1.6,1.6,2.6
	c3.3,6.1,9,10.6,15.8,12.4c3,0.8,7,0.5,8-2.4c0.1-0.5,0.3-1,0.6-1.4c1-1.4,3.1-0.6,4.6,0c3.5,1.8,7.2,2.9,11.1,3.2
	c1.5,0.2,3.1,0,4.6-0.5c1.2-0.6,2.3-1.5,3.1-2.7c3.3-5,5.1-10.8,5.3-16.8c0.6-3.8,0.6-7.8,0-11.6c-1.2-6.1-4.9-11.8-4.4-18
	c0.5-6.2,6-12.1,6.8-18.7c0.4-3.5-0.4-7-2.4-9.8c-0.7-0.9-1.3-1.9-1.8-2.9c-0.5-1.1-0.3-2.3,0.6-3.2c0.4-0.3,0.9-0.6,1.4-0.7
	c4.2-1.9,6.9-6,7-10.5c0-1.7,0.2-3.3,0.5-5C593.6,250.4,595.9,247.6,595.5,244.8z"/>
<g class="st0">
	<path d="M554.4,350.2c-0.3,0.4-0.4,0.9-0.6,1.4c-0.8,1.6-2.4,2.7-4.2,2.7c2.6,0.2,5.4-0.4,6.3-2.7c0.1-0.5,0.3-1,0.6-1.4
		c0.2-0.3,0.4-0.5,0.7-0.6C556.2,349.2,555.1,349.4,554.4,350.2z"/>
	<path d="M595.6,244.8c-0.2-1-0.8-2-1.5-2.8c-2.8-4.2-6.6-7.5-11.1-9.8c-2-0.8-4.2-1.1-6.4-0.9c1.4,0,2.9,0.3,4.2,0.8
		c4.5,2.2,8.3,5.6,11.1,9.8c0.7,0.8,1.3,1.7,1.5,2.8c0.4,2.8-1.9,5.6-2.7,8.2c-0.3,1.6-0.5,3.3-0.5,5c-0.2,4.6-2.9,8.6-7,10.5
		c-0.5,0.1-1,0.4-1.4,0.7c-0.8,0.8-1,2.1-0.6,3.2c0.5,1,1.1,2,1.9,2.9c2,2.9,2.9,6.4,2.4,9.8c-0.8,6.6-6.2,12-6.8,18.6
		s3.2,12,4.4,18.1c0.6,3.8,0.6,7.8,0,11.6c-0.2,6-2,11.8-5.3,16.8c-0.8,1.1-1.9,2.1-3.1,2.7c-0.7,0.3-1.5,0.5-2.2,0.6
		c1.5,0.2,2.9,0,4.3-0.6c1.2-0.6,2.3-1.5,3.1-2.7c3.3-5,5.1-10.8,5.3-16.8c0.6-3.8,0.6-7.8,0-11.6c-1.2-6.1-4.9-11.8-4.4-18.1
		s6-12,6.8-18.6c0.4-3.5-0.4-7-2.4-9.8c-0.7-0.9-1.4-1.9-1.9-2.9c-0.5-1.1-0.3-2.3,0.6-3.2c0.4-0.3,0.9-0.6,1.4-0.7
		c4.2-1.9,6.9-6,7-10.5c0-1.7,0.2-3.3,0.5-5C593.7,250.4,596,247.6,595.6,244.8z"/>
</g>
<path class="st3" d="M528.6,591.1c0.7,0.7,1.7,1,2.7,0.8"/>
<path class="st3" d="M613.7,606.6c-1.3,1.1-3.1,1.5-4.8,1.2"/>
<path class="st2" d="M236.2,629.3l13.3-7.8c-1.8-3.1-4.1-5.8-6.8-8.2l-25.1,7.8l19.7-11.6c-15.5-8.5-34.9-2.8-43.4,12.7
	c-2.6,4.7-3.9,10-3.9,15.4c0,17.7,14.3,18.3,32,18.3s32-0.6,32-18.3c0-4.5-0.9-8.9-2.8-13L236.2,629.3z"/>
<path class="st3" d="M239.5,646.5c-1.4-1.4-3-2.7-4.7-3.7c-2.4-1.6-4.9-3.2-7.8-3.8c-2.5-0.5-5.1-0.1-7.6-0.2
	c-4.4-0.3-8.6-2.2-11.7-5.4c-1.8-1.9-3.2-4.2-5.4-5.6c-2.4-1.5-5.3-2-8.1-1.5c-0.8,0.1-1.6,0.3-2.4,0.5c-1.3,3.5-1.9,7.2-1.9,10.8
	c0,17.7,14.3,18.3,32,18.3c8.6,0,16.4-0.2,22.1-2.3l-1-1.8C242.1,649.9,240.9,648.1,239.5,646.5z"/>
<path class="st2" d="M374.7,615.6l-10.4-6.1c1.4-2.4,3.2-4.5,5.3-6.4l19.6,6.1l-15.4-9c12.1-6.6,27.3-2.2,33.9,9.9
	c2,3.7,3.1,7.8,3.1,11.9c0,13.8-11.2,14.3-25,14.3s-25-0.5-25-14.3c0-3.5,0.7-6.9,2.1-10.1L374.7,615.6z"/>
<path class="st3" d="M372,629.1c1.1-1.1,2.3-2.1,3.7-2.9c1.8-1.4,3.9-2.4,6.1-3c2-0.4,4-0.1,6-0.2c3.5-0.2,6.7-1.7,9.1-4.2
	c1.4-1.5,2.5-3.3,4.2-4.4c1.9-1.1,4.2-1.6,6.4-1.2c0.6,0.1,1.3,0.2,1.9,0.4c1,2.7,1.5,5.6,1.5,8.4c0,13.8-11.2,14.3-25,14.3
	c-6.7,0-12.8-0.1-17.3-1.8l0.8-1.4C370.1,631.7,371,630.3,372,629.1z"/>
<path class="st2" d="M454.7,615.6l-10.4-6.1c1.4-2.4,3.2-4.5,5.3-6.4l19.6,6.1l-15.4-9c12.1-6.6,27.3-2.2,33.9,9.9
	c2,3.7,3.1,7.8,3.1,11.9c0,13.8-11.2,14.3-25,14.3s-25-0.5-25-14.3c0-3.5,0.7-6.9,2.1-10.1L454.7,615.6z"/>
<path class="st3" d="M452,629.1c1.1-1.1,2.3-2.1,3.7-2.9c1.8-1.4,3.9-2.4,6.1-3c2-0.4,4-0.1,6-0.2c3.5-0.2,6.7-1.7,9.1-4.2
	c1.4-1.5,2.5-3.3,4.2-4.4c1.9-1.1,4.2-1.6,6.4-1.2c0.6,0.1,1.3,0.2,1.9,0.4c1,2.7,1.5,5.6,1.5,8.4c0,13.8-11.2,14.3-25,14.3
	c-6.7,0-12.8-0.1-17.3-1.8l0.8-1.4C450.1,631.7,451,630.3,452,629.1z"/>
<path class="st1" d="M488.7,551.4c1.8-3.2,2.8-6.8,2.7-10.5c0-9.5-5.9-17.2-13.1-17.2s-13.1,7.7-13.1,17.2c0,3.7,0.9,7.3,2.7,10.5
	c-3.7,6.5-3.7,14.5,0,21c-3.7,6.5-3.7,14.5,0,21c-3.7,6.5-3.7,14.5,0,21c-1.8,3.2-2.8,6.8-2.7,10.5c0,9.5,5.9,17.2,13.1,17.2
	s13.1-7.7,13.1-17.2c0-3.7-0.9-7.3-2.7-10.5c3.7-6.5,3.7-14.5,0-21c3.7-6.5,3.7-14.5,0-21C492.4,565.9,492.4,557.9,488.7,551.4z"/>
<ellipse class="st1" cx="478.3" cy="519.9" rx="13.1" ry="17.2"/>
<ellipse class="st1" cx="478.3" cy="498.9" rx="13.1" ry="17.2"/>
<path class="st4" d="M527.4,355.3c1.8-2.3,3.4-4.7,4.9-7.2l-34.4-5.7l37.3,0.3c7.2-15.7,7.7-33.7,1.2-49.8l-50,25.9l46.1-33.9
	c-17.4-30-55.8-40.2-85.9-22.8c-30,17.4-40.2,55.8-22.8,85.9c1.5,2.5,3.1,5,4.9,7.3c-2.8,3.6-5.2,7.4-7.2,11.5l44.7,23.2l-47.7-16
	c-6.8,20.1-3,42.3,10.1,59c-21.4,27.3-16.7,66.8,10.5,88.2c27.3,21.4,66.8,16.7,88.2-10.5c17.9-22.8,17.9-54.9,0-77.7
	C545.4,410.2,545.4,378.1,527.4,355.3L527.4,355.3z"/>
<path class="st5" d="M415.2,394.2c0,14.1,4.7,27.8,13.4,38.8c-21.4,27.3-16.7,66.8,10.5,88.2c27.3,21.4,66.8,16.7,88.2-10.5
	c17.9-22.8,17.9-54.9,0-77.7C535.9,422.3,415.2,387.1,415.2,394.2z"/>
</svg>
