<?xml version="1.0" encoding="utf-8"?>
<!-- Generator: Adobe Illustrator 26.0.3, SVG Export Plug-In . SVG Version: 6.00 Build 0)  -->
<svg version="1.1" id="Calque_1" xmlns="http://www.w3.org/2000/svg" xmlns:xlink="http://www.w3.org/1999/xlink" x="0px" y="0px"
	 viewBox="0 0 718.6 557.8" style="enable-background:new 0 0 718.6 557.8;" xml:space="preserve">
<style type="text/css">
	.st0{fill:#E6E6E6;}
	.st1{fill:#FF5757;}
	.st2{fill:#FFB8B8;}
	.st3{fill:#2F2E41;}
	.st4{fill:#F2F2F2;}
	.st5{fill:#3F3D56;}
	.st6{opacity:0.1;enable-background:new    ;}
</style>
<ellipse class="st0" cx="333" cy="546.8" rx="333" ry="11"/>
<circle class="st1" cx="328" cy="137.8" r="41"/>
<path class="st2" d="M317.2,232.6l-18.6-14.2l-66.4,120.3c-5.9,1.1-9.8,6.7-8.7,12.6c1.1,5.9,6.7,9.8,12.6,8.7
	c5.7-1,9.6-6.4,8.8-12.2L317.2,232.6z"/>
<path class="st2" d="M486.5,300.9c-1.6-4.5-5.9-7.5-10.6-7.3l-107-83.9l-16.1,17l112.7,78.6c0.4,5.9,5.6,10.4,11.6,10
	c5.9-0.4,10.4-5.6,10-11.6C487,302.7,486.8,301.8,486.5,300.9L486.5,300.9z"/>
<polygon class="st2" points="362.3,535 374.9,535 380.9,486.4 362.3,486.4 "/>
<path class="st3" d="M399.2,546.7h-39.6l0,0v-15.3l0,0h24.3C392.4,531.4,399.2,538.3,399.2,546.7L399.2,546.7L399.2,546.7
	L399.2,546.7z"/>
<polygon class="st2" points="262.4,523.8 274,528.8 298.7,486.4 281.6,479.1 "/>
<path class="st3" d="M291.7,549.1l-36.4-15.6l0,0l6-14.1l0,0l22.3,9.6C291.4,532.3,295,541.3,291.7,549.1L291.7,549.1L291.7,549.1
	L291.7,549.1z"/>
<path class="st3" d="M301.7,301.9l-60,188.9l78.7,8.4l7.6-110.4l10.2,110.4l63.7-7.5c0,0-11.5-174.9-32.5-186.1
	S301.7,301.9,301.7,301.9z"/>
<circle class="st2" cx="334.2" cy="162.5" r="26.2"/>
<path class="st3" d="M333.4,310.3c-18.2,0-35.8-0.8-36.7-2.4c-0.2-0.3-0.1-0.6,0.1-0.8c1.3-1.8-1.7-31.8-7.9-80.2
	c-1.4-11.7,5.4-22.8,16.5-26.7l0.1,0l54.9-5.4l0.6,0.2c11.2,3.1,18.7,13.6,18.2,25.2c-1.4,30.9-3.8,83.2-3.8,86.5
	c0,0.9-1.3,1.4-2.4,1.7C367.8,309.6,350.3,310.3,333.4,310.3z M297.6,307.8L297.6,307.8z"/>
<rect x="70.3" y="112.1" transform="matrix(0.6248 -0.7808 0.7808 0.6248 -81.0185 153.5854)" class="st4" width="98" height="98"/>
<path class="st5" d="M126.4,247.1c-12-1.8-20.3-13.1-18.4-25.1c1.8-12,13.1-20.3,25.1-18.4c12,1.8,20.3,13.1,18.4,25.1
	S138.4,249,126.4,247.1C126.4,247.1,126.4,247.1,126.4,247.1z M132.7,205.6c-10.9-1.7-21.1,5.8-22.8,16.8
	c-1.7,10.9,5.8,21.1,16.8,22.8c10.9,1.7,21.1-5.8,22.8-16.8l0,0l0,0C151.1,217.5,143.6,207.3,132.7,205.6z"/>
<path class="st0" d="M79.6,495.2c-7.5,25.1,4.1,50.7,4.1,50.7s23.8-15,31.3-40.1c7.5-25.1-4.1-50.7-4.1-50.7S87.1,470.1,79.6,495.2z
	"/>
<path class="st0" d="M91,495.9c6.3,25.4-6.5,50.5-6.5,50.5S61.4,530.2,55,504.8c-6.3-25.4,6.5-50.5,6.5-50.5S84.7,470.5,91,495.9z"
	/>
<path class="st1" d="M297.3,145.1c14,7.6,29.7,11.4,45.5,11c6.1-0.2,12.8-1.3,16.6-6c4.3-5.3,3.3-13.6-0.9-19.1s-10.8-8.5-17.3-10.6
	c-6.2-2-12.8-3.2-19.2-1.9c-12.9,2.8-21.1,15.5-18.3,28.4c0.2,1.1,0.6,2.2,1,3.3"/>
<circle class="st1" cx="299" cy="108.8" r="23"/>
<path class="st5" d="M714.6,111.4l-90.3-52.6l11.6-19.9c1.4-2.4,0.6-5.4-1.8-6.8s-5.4-0.6-6.8,1.8l-11.6,19.9L525.4,1.1
	c-3.8-2.2-8.7-0.9-10.9,2.9l-70.5,121c-2.2,3.8-0.9,8.7,2.9,10.9l90.3,52.6l-79.1,135.6c-1.4,2.4-0.6,5.4,1.8,6.8
	c2.4,1.4,5.4,0.6,6.8-1.8c0,0,0,0,0,0l79.1-135.6l90.3,52.6c3.8,2.2,8.7,0.9,10.9-2.9c0,0,0,0,0,0l70.5-121
	C719.7,118.5,718.4,113.6,714.6,111.4C714.6,111.4,714.6,111.4,714.6,111.4z"/>
<ellipse transform="matrix(0.5036 -0.864 0.864 0.5036 133.6743 562.8084)" class="st6" cx="556.6" cy="165.1" rx="10" ry="38"/>
<circle class="st1" cx="580.7" cy="123.6" r="48"/>
<path class="st4" d="M601.6,147.4c-2.8,4.8-22.4,7.8-36.7-0.6s-17.9-24.9-15.1-29.7s10.9,4,25.2,12.4S604.4,142.6,601.6,147.4z"/>
<circle class="st4" cx="570.3" cy="97.9" r="10"/>
<circle class="st4" cx="606.6" cy="119" r="10"/>
</svg>
