<?xml version="1.0" encoding="utf-8"?>
<!-- Generator: Adobe Illustrator 26.0.3, SVG Export Plug-In . SVG Version: 6.00 Build 0)  -->
<svg version="1.1" id="Calque_1" xmlns="http://www.w3.org/2000/svg" xmlns:xlink="http://www.w3.org/1999/xlink" x="0px" y="0px"
	 viewBox="0 0 1100.1 732" style="enable-background:new 0 0 1100.1 732;" xml:space="preserve">
<style type="text/css">
	.st0{opacity:0.1;fill:#6C63FF;enable-background:new    ;}
	.st1{fill:#545454;}
	.st2{fill:#3F3D56;}
	.st3{fill:#1F7F5C;}
	.st4{fill:#30A17D;}
	.st5{fill:#FABDBD;}
	.st6{opacity:0.1;}
	.st7{opacity:0.1;enable-background:new    ;}
	.st8{fill:#F86D70;}
	.st9{fill:#FF5757;}
	.st10{fill:#6C63FF;}
</style>
<path class="st0" d="M641.2,146c-64.7-2.3-126.4-23.2-185.2-46S338.9,51.8,275.7,39.7c-40.6-7.8-87.1-8.9-119.8,12.9
	c-31.5,21-41.7,57.1-47.2,90.7c-4.1,25.3-6.5,51.8,4.7,75.5c7.8,16.4,21.7,30.2,31.4,46c33.5,54.7,9.8,122.2-26.4,175.6
	c-17,25.1-36.8,49-49.9,75.7s-19.2,57.2-7.7,84.5c11.4,27,38.5,47.2,67.9,61.5c59.7,28.9,130,37.2,198.6,41.9
	c151.8,10.4,304.5,5.9,456.7,1.4c56.3-1.7,112.9-3.4,168.3-12.1c30.8-4.8,62.6-12.5,84.9-31c28.4-23.5,35.4-63.4,16.4-92.9
	c-31.9-49.5-120-61.8-142.3-114.9c-12.3-29.2,0.3-61.8,18.2-88.9c38.2-58.2,102.3-109.2,105.7-175.7c2.3-45.7-28.5-91.4-76.1-113
	C909.1,54.2,839.9,57,803,94.5C765.1,133.1,698.4,147.9,641.2,146z"/>
<ellipse class="st1" cx="171.3" cy="717.9" rx="73.2" ry="14.1"/>
<ellipse class="st2" cx="170" cy="711.9" rx="8.5" ry="11.2"/>
<ellipse class="st2" cx="170" cy="698.3" rx="8.5" ry="11.2"/>
<ellipse class="st2" cx="170" cy="684.6" rx="8.5" ry="11.2"/>
<ellipse class="st2" cx="170" cy="671" rx="8.5" ry="11.2"/>
<ellipse class="st2" cx="170" cy="657.4" rx="8.5" ry="11.2"/>
<ellipse class="st2" cx="170" cy="643.7" rx="8.5" ry="11.2"/>
<ellipse class="st2" cx="170" cy="630.1" rx="8.5" ry="11.2"/>
<path class="st3" d="M201.9,536.8c1.2-1.5,2.2-3,3.2-4.7l-22.4-3.7l24.2,0.2c4.7-10.2,5-21.9,0.8-32.3l-32.5,16.9l30-22
	c-11.3-19.5-36.3-26.2-55.8-14.8c-19.5,11.3-26.2,36.3-14.8,55.8c1,1.6,2,3.2,3.2,4.7c-1.8,2.3-3.4,4.8-4.7,7.5l29.1,15.1l-31-10.4
	c-4.4,13.1-2,27.5,6.6,38.3c-13.9,17.7-10.9,43.4,6.8,57.3c17.7,13.9,43.4,10.9,57.3-6.8c11.7-14.8,11.7-35.7,0-50.5
	C213.6,572.5,213.6,551.6,201.9,536.8L201.9,536.8z"/>
<path class="st4" d="M129.1,562c0,9.2,3.1,18.1,8.7,25.2c-13.9,17.7-10.9,43.4,6.8,57.3c17.7,13.9,43.4,10.9,57.3-6.8
	c11.7-14.8,11.7-35.7,0-50.5C207.4,580.3,129.1,557.4,129.1,562z"/>
<path class="st2" d="M526,548c0.6,8,3.7,16.3,10.2,21s16.8,4.6,21.7-1.7c1.7-2.4,2.9-5,3.6-7.8c4.2-13.2,7.1-27.6,2.6-40.7
	c-10.3-0.7-22.3-5.5-30,3C527.8,528.7,525.2,538.7,526,548z"/>
<path class="st5" d="M573.8,467.4c-1.4,11.6-3.7,23.2-3.5,34.9c0.1,4.5,0.6,9,0.6,13.5c0,11.8-3.1,23.4-9,33.6
	c-0.6,1.2-1.5,2.3-2.5,3.2c-2.4,1.9-5.9,1.8-8.6,0.3c-2.6-1.6-4.7-3.9-6.1-6.6c-7.5-12.8-7.7-28.3-10.6-42.7
	c-2.3-11.1-6.2-21.8-7.7-33c-0.9-7.2-0.8-14.6-2.3-21.7c-0.5-2.2-1.7-5.4-2.5-8.5c-0.8-2.8-1.2-5.6-0.4-7.5
	c1.6-3.9,6.8-2.4,10.2-2.2c11.9,0.9,23.9,0.9,35.9-0.1c1.2-0.1,2.5-0.1,3.3,0.7c0.4,0.4,0.6,0.9,0.8,1.5c1,2.6,1.7,5.3,2.2,8
	C575.3,449.4,574.8,458.5,573.8,467.4z"/>
<g class="st6">
	<path d="M569.2,430.5c-0.6-0.1-1.2-0.1-1.8,0c-5.7,0.5-11.5,0.7-17.2,0.7C556.5,431.2,562.9,431,569.2,430.5z"/>
	<path d="M552.9,552.9c-2.6-1.6-4.7-3.9-6.1-6.6c-7.5-12.8-7.7-28.3-10.6-42.7c-2.3-11.1-6.2-21.8-7.7-33
		c-0.9-7.2-0.8-14.6-2.3-21.7c-0.5-2.2-1.7-5.4-2.5-8.5c-0.8-2.8-1.2-5.6-0.4-7.5c0.7-1.6,2.3-2.6,4-2.6c-2.5-0.2-5,0.1-6,2.6
		c-0.8,1.9-0.4,4.7,0.4,7.5c0.8,3.2,2.1,6.4,2.5,8.5c1.5,7.1,1.3,14.5,2.3,21.7c1.4,11.2,5.4,21.9,7.7,33c3,14.5,3.2,30,10.6,42.7
		c1.4,2.7,3.5,5,6.1,6.6c1.6,0.9,3.4,1.3,5.2,1.1C555,553.8,553.9,553.4,552.9,552.9z"/>
</g>
<path class="st5" d="M611.6,528.7c-6,12-5,29-5,29c1,40-15,124-15,124h-14c0,0-2-93,0-101s-1-36-4-75c-2.2-29,3.8-55.3,7.1-66.8
	c1.1-4,1.9-6.2,1.9-6.2s23-34,36-18c3,3.7,4.6,11.2,5.1,20.7C625.5,466.7,616.2,519.5,611.6,528.7z"/>
<path class="st7" d="M623.8,435.4c-0.5-9.5-2.1-17-5.1-20.7c-2.9-3.6-6.3-4.6-9.8-4.2c2.7,0.5,5.2,1.9,6.8,4.2
	c3,3.7,4.6,11.2,5.1,20.7c1.8,31.3-7.5,84.1-12.1,93.3c-6,12-5,29-5,29c1,40-15,124-15,124h3c0,0,16-84,15-124c0,0-1-17,5-29
	C616.2,519.5,625.5,466.7,623.8,435.4z"/>
<path class="st2" d="M570.3,678c-1.1,0.9-2.1,1.9-2.9,3.1c-1.8,3.4,0.8,7.4,3.5,10.1s6,5.6,6,9.4c0,3.1-2.3,5.7-4.9,7.4
	c-1.4,0.9-3.2,2-2.9,3.7c0.1,0.4,0.3,0.8,0.5,1.2c2.2,3.4,6.2,5.4,10.2,6.2s8.2,0.4,12.3,0.1c0.6,0,1.2-0.2,1.7-0.6
	c0.3-0.4,0.5-0.9,0.5-1.4c0.2-2.1,0.1-4.4,1-6.3c1.3-2.6,4.3-3.9,6-6.3c2.4-3.2,2.1-7.7,1.2-11.5c-2-8.5-6.5-18.1-13.1-24
	C581.6,662.4,575.5,673.2,570.3,678z"/>
<path class="st2" d="M600.6,174c5.6-8.3,4.1-20-1.6-28.3s-14.9-13.5-24.3-16.9c-12.7-4.5-26.8-6.1-39.9-2.7
	c-10.4,2.7-19.8,8.4-29.6,12.8c-17.4,7.8-36.3,11.5-55.3,11c-21.1-0.6-44.2-6-62,5.5c-32.4,21.1-18,78.5-48.7,102
	c-8.3,6.3-18.7,9.1-27.9,14s-17.9,13.4-17.7,23.8c0.1,5,2.3,9.8,5,14c11.5,18.2,33,29.5,54.5,29.3s42.5-11.7,55-29.3
	c3.1-4.4,5.9-9.3,10.4-12.3c9-5.9,20.9-1.8,31.6-0.9c23.9,2,47.8-16,52.6-39.5c2-10,1.7-22.1,9.7-28.4c6.5-5.1,15.7-4,24-4.9
	c15.1-1.6,27.1-11,35.3-23.3c3.8-5.6,4.2-12.4,9.3-16.9C586.8,178.3,595.3,181.9,600.6,174z"/>
<g class="st6">
	<path d="M430,151.8c8.8,0.2,17.5-0.4,26.2-2c-2.4,0.1-4.8,0.1-7.2,0c-16.6-0.5-34.4-3.9-49.8,0.2
		C409.4,150.2,419.9,151.5,430,151.8z"/>
	<path d="M398.6,299c-4.5,2.9-7.2,7.9-10.4,12.3c-9.6,13.4-23.5,23-39.5,27.2c1.2,0,2.3,0.1,3.5,0.1c21.5-0.2,42.5-11.7,55-29.3
		c3.1-4.4,5.9-9.3,10.4-12.3l0.8-0.5C411.3,295.5,404.4,295.2,398.6,299z"/>
	<path d="M598.1,145.7c-5.7-8.3-14.9-13.5-24.3-16.9c-12.7-4.5-26.8-6.1-39.9-2.7c-0.3,0.1-0.6,0.2-0.9,0.2
		c7.4,0.4,14.8,1.9,21.8,4.4c9.5,3.4,18.6,8.6,24.3,16.9s7.2,20,1.6,28.3c-5.3,7.9-13.9,4.3-19.5,9.2c-5.1,4.5-5.6,11.2-9.3,16.9
		c-7.1,10.6-16.9,19-29.2,22.2c4.2-0.5,8.7-0.4,12.8-0.9c15.1-1.6,27.1-11,35.3-23.3c3.8-5.6,4.2-12.4,9.3-16.9
		c5.6-4.9,14.2-1.3,19.5-9.2C605.2,165.6,603.8,153.9,598.1,145.7z"/>
	<path d="M516.5,225.3c-8.2,0.9-17.4-0.2-24,4.9c-8.1,6.3-7.7,18.3-9.7,28.4c-3.5,17.6-17.8,32.1-34.7,37.5l1.2,0.1
		c23.9,2,47.8-16,52.6-39.5c2-10,1.7-22.1,9.7-28.4c1.9-1.4,4-2.4,6.2-3C517.3,225.2,516.9,225.3,516.5,225.3z"/>
</g>
<path class="st5" d="M758.1,138.2c0,0-24,48-32,66s-81,45-91,46c-2.7,0.4-5.2,1.6-7.1,3.4c-5.7,5-8.9,13.6-8.9,13.6s4,27-1,72
	c-0.1,0.9-0.2,1.7-0.3,2.6c-4.4,42.8,4.8,52.9,4.8,52.9s-97,37-94-11c0.9-15.1,0.8-26.1-0.1-35.4c-1-9.4-2.9-18.8-5.7-27.9
	c-2.4-8.3-5.2-17.4-8.1-29.8c-1.4-6.2-3.3-12.2-5.6-18.2c-0.1-0.2-0.1-0.4-0.2-0.5c-5-12.4-10-16.4-12.9-17.7
	c-2.7-1.2-5.3-2.6-7.7-4.3c-9.2-6.7-29.1-21.6-46.7-39.3c-24-24-48-81-48-81s-7-33,9-60s9,53,9,53s29,39,36,57
	c3.6,9.3,9.3,14,14,16.5c7.7,4,15.1,8.7,22.1,13.8c4.7,3.6,9.7,6.8,14.9,9.7c11.2,6,24.6,12.8,35.7,14.5c1.7,0.3,3.5,0.4,5.3,0.5
	c1.7,0.1,3.3-0.7,4.4-2c3-3.5,2.9-11.1,2.2-17.4c-0.4-3.2-0.9-6.5-1.6-9.6c0,0,32.5-20.5,31.5,4.5c-0.2,2.8,0.1,5.5,0.8,8.2
	c1.1,5,4.8,9.1,9.7,10.6c3.9,1.1,8,1.3,12,0.4c1.2-0.2,2.4-0.6,3.5-1.2c3-2,33-11,42-12s54-23,54-23l49-68c0,0-1-40,19-56
	S758.1,138.2,758.1,138.2z"/>
<g class="st6">
	<path d="M617.8,335.8c-0.9,8-1.3,16.1-1.2,24.2c0.1-5.3,0.5-11.3,1.2-18.2c0.1-0.8,0.2-1.7,0.3-2.6c1.7-15.4,2.6-30.9,2.5-46.4
		c-0.2,13.5-1,27-2.5,40.4C618.1,334.1,617.9,334.9,617.8,335.8z"/>
	<path d="M545.7,205.1c-0.7,0.4-1,0.6-1,0.6c1,4.3,1.6,8.6,1.9,13C546.8,214.1,546.5,209.6,545.7,205.1z"/>
	<path d="M412.1,117.3c0.5-7,1.2-19.6,1.1-30.7c-0.2,14.9-1.5,30.1-1.5,30.1L412.1,117.3z"/>
	<path d="M528.7,382.5c0,0.4,0,0.8-0.1,1.2c-3,48,94,11,94,11c-1.1-1.5-2-3.3-2.5-5.1C605.5,394.8,532.1,419,528.7,382.5z"/>
	<path d="M758.1,132.2c0,0-24,48-32,66s-81,45-91,46c-2.7,0.4-5.2,1.6-7.1,3.4c-5.7,5-8.9,13.6-8.9,13.6s0.2,1.6,0.5,4.7
		c1.1-2.6,4-8.5,8.3-12.3c2-1.9,4.5-3.1,7.1-3.4c10-1,83-28,91-46s32-66,32-66s16.9-51.4,15-66.7
		C771.6,91.2,758.1,132.2,758.1,132.2z"/>
	<path d="M528.5,342.3c-1-9.4-2.9-18.8-5.7-27.9c-2.4-8.3-5.2-17.4-8.1-29.8c-1.4-6.2-3.3-12.2-5.6-18.2c-0.1-0.2-0.1-0.4-0.2-0.5
		c-5-12.4-10-16.4-12.9-17.7c-2.7-1.2-5.3-2.6-7.7-4.3c-9.2-6.7-29.1-21.6-46.7-39.3c-24-24-48-81-48-81c-0.9-4.8-1.4-9.7-1.5-14.6
		c-0.2,6.9,0.3,13.8,1.5,20.6c0,0,24,57,48,81c17.7,17.7,37.5,32.6,46.7,39.3c2.4,1.7,5,3.1,7.7,4.3c2.8,1.3,7.8,5.3,12.9,17.7
		c0.1,0.2,0.1,0.4,0.2,0.5c2.3,5.9,4.1,12,5.5,18.1c2.9,12.4,5.8,21.5,8.1,29.8c2.8,9.1,4.7,18.4,5.7,27.9c0.4,4.2,0.7,8.7,0.7,13.9
		C529.4,355.5,529.1,348.9,528.5,342.3z"/>
</g>
<path class="st4" d="M627.5,298.9c-1.5,2.5-2.9,5.2-4,7.9c-1.5,4.2-1.5,8.8-1.8,13.2c-0.4,6.2-1.3,12.4-2.8,18.5
	c-0.2,1.1-0.6,2.2-1,3.3c-0.3,0.7-0.7,1.4-1.2,2c-0.5,0.7-1.2,1.2-1.9,1.7c-1.1,0.7-2.2,1.3-3.4,1.9c-13.9,6.5-29.1,12.2-44.3,10
	c-6.4-1.1-12.6-3.2-18.4-6.2c-5.5-2.7-11.7-5.8-17.4-3.6l0,0c-0.9,0.4-1.8,0.7-2.8,0.9c-0.2,0-0.4,0-0.6,0c-1.9-0.4-1.9-6.7-2.3-8.6
	c-1.6-7.2-1.9-13-2.9-19.2c-0.5-3.5-1.3-6.9-2.4-10.2c-4-12.1-5.2-25-5.2-37.7c0-0.6-4.5,0-6-0.1c-0.4,0-0.6-0.1-0.5-0.2
	c0.1-0.1,0.2-0.2,0.3-0.3c0.5-0.4,1.1-0.7,1.8-0.9l1.2-0.4c6.2-1.8,13-2.5,17.6-6.8c4.8-4.5,6-11.7,5.8-18.2
	c-0.1-2.1-1.1-7.2-0.9-11.5c1.7,0.3,3.5,0.4,5.3,0.5c1.7,0.1,3.3-0.7,4.4-2c1.7,3.2,3.1,6.6,4.3,10c1.7,4.2,3,8.6,5.5,12.4
	c4,6.2,11.4,10.2,18.7,9.6s14.2-6.3,15.5-13.5c1.2-6.4-1.5-15.5-1.5-22.1c3.9,1.1,8,1.3,12,0.4c0.2,0.4,0.3,0.8,0.4,1.2
	c2.2,7.7,5.2,16.6,12.8,19.3c4.9,1.8,10.7,0.4,15.2,3c0.3,0.2,0.7,0.4,1,0.7c1,0.8,1.9,1.7,2.7,2.8c1.9,3.1,3,6.5,3.2,10.1
	C635.1,277.8,632.8,289,627.5,298.9z"/>
<path class="st7" d="M576.9,218.4c-10.1,3.9-21.5,2.8-30.6-3.1c-0.4-3.2-0.9-6.5-1.6-9.6c0,0,32.5-20.5,31.5,4.5
	C576,213,576.2,215.7,576.9,218.4z"/>
<circle class="st5" cx="564.6" cy="184.7" r="34"/>
<path class="st8" d="M505.1,269.2c0,0,66-42,271,3s324,9,324,9v47c0,0-230,25-318,0s-213.3-39.4-257.1-0.7L505.1,269.2z"/>
<path class="st7" d="M505.1,269.2c0,0,66-42,271,3s324,9,324,9v47c0,0-230,25-318,0s-213.3-39.4-257.1-0.7L505.1,269.2z"/>
<path class="st9" d="M507.1,271.2c0,0,64-42,269,3s322,9,322,9l1,43c0,0-228,25-316,0s-212.3-42.4-256.1-3.7L507.1,271.2z"/>
<path class="st8" d="M483.1,335.8c0,0-66,42-271-3s-195-9-195-9v-47c0,0,101-25,189,0s213.3,39.4,257.1,0.7L483.1,335.8z"/>
<path class="st7" d="M483.1,335.8c0,0-66,42-271-3s-195-9-195-9v-47c0,0,101-25,189,0s213.3,39.4,257.1,0.7L483.1,335.8z"/>
<path class="st9" d="M481.1,333.8c0,0-64,42-269-3s-193-9-193-9l-1-43c0,0,99-25,187,0s212.3,42.4,256.1,3.7L481.1,333.8z"/>
<path class="st2" d="M535.4,190.3c-1-6.2-2.5-14.1,2.7-17.7c1.9-1.1,4-1.7,6.2-1.6c10.8-0.1,21.1,7.4,31.7,5.2
	c9.7-2,15.9-11.5,13.8-21.2c-0.9-4.3-3.3-8.1-6.8-10.7c-4.2-3.1-9.4-4.2-14.5-5.3c-13.4-2.8-27.4-5.5-40.7-2s-25.3,15.4-24.3,29
	c0.5,6.5,3.8,12.4,7.3,18c2.6,4.2,12.9,24,17.9,24.3C535.8,208.8,536.1,194.4,535.4,190.3z"/>
<path class="st4" d="M619.6,377.7c0,0-69,17-92,0c0,0-10,39-7,59c0,0,49,3,54,6c0,0,1-8,6-4c0,0,17-20,48-2
	C628.6,436.7,634.6,389.7,619.6,377.7z"/>
<path class="st7" d="M583,144.4c-0.7-0.5-1.5-1-2.2-1.4c6.5,7.4,5.8,18.7-1.6,25.2c-2.3,2-5.1,3.5-8.2,4.1
	c-10.6,2.2-20.9-5.3-31.7-5.2c-2.2-0.1-4.3,0.5-6.2,1.6c-5.2,3.6-3.7,11.4-2.7,17.7c0.7,4.1,0.4,18.5-6.6,18.1h-0.1
	c1.9,2.4,3.7,3.9,5.1,4c7,0.4,7.3-14,6.6-18.1c-1-6.2-2.5-14.1,2.7-17.7c1.9-1.1,4-1.7,6.2-1.6c10.8-0.1,21.1,7.4,31.7,5.2
	c9.7-2,15.9-11.5,13.8-21.2C588.9,150.8,586.5,147,583,144.4L583,144.4z"/>
<g class="st7">
	<path class="st10" d="M86.4,96.9c0,0-74.8-31.4-84.6,25.3c0,0-5.1,8.8,2,16.1c0,0,1.5-3.9,8.8,0.1c2.6,1.4,5.3,2.5,8.2,3.3
		c3.8,1.1,7.9,0.8,11.6-0.6l0,0c0,0,24.6-1.3,45.3-33.5c0,0,8.9-5.5,9.3-7.5l-14.8,1c0,0,1.1,10.9-5,17.4c0,0,5.4-16.8,2.8-17.3
		c-0.5-0.1-7.8,0.9-7.8,0.9s1.9,18.9-8,28.6c0,0,9.2-19.2,5.2-28.3l-10.9,2.1c0,0,3,19.8-7.8,31.4c0,0,8.9-20.4,5.5-30.8l-10.5,3.5
		c0,0,2.5,19.4-6.5,29c0,0,7.9-24.6,4.2-28c0,0-9.4,3.8-11.4,6c0,0,1.5,14-4.3,19c0,0,3.5-17,1.8-17.7c0,0-11,8.2-14.3,15.4
		c0,0,4.2-10.9,12.9-17c0,0-7.3-1.2-13,1.8c0,0,3.8-7.2,15.7-3.8c0,0,8.8-6.1,10.6-6c0,0-11.2-5-19.3-4.4c0,0,8.7-5,22.1,3.4
		l10.4-3.8c0,0-14.5-7.4-21.8-7.4c0,0,9.7-3.7,24.5,6.7l10.7-2.2c0,0-12-7.4-20.1-9.1c0,0,9.7-1.5,23.2,8.6l7.3-0.6
		c0,0-8.9-5.2-11.5-6.5S54,89.9,54,89.9c6.4,1.1,12.3,4,17.2,8.3C71.2,98.1,86.3,97.8,86.4,96.9z"/>
</g>
<g class="st7">
	<path class="st10" d="M83.6,40.5c0,0-26.5-61.3-64.6-33.2c0,0-8.1,2.3-8,10.7c0,0,3.1-1.4,5.1,5.1c0.7,2.3,1.7,4.5,3,6.6
		c1.7,2.8,4.2,5,7.2,6.2l0,0c0,0,15.4,13.2,46,5.9c0,0,8.4,1.8,9.8,0.8l-9.4-7.9c0,0-5.5,7.1-12.9,7.4c0,0,12.8-6.9,11.5-8.7
		c-0.3-0.4-5.1-3.9-5.1-3.9s-9.6,12.3-21,12.5c0,0,16.4-6.2,19.2-13.8l-7.7-5c0,0-9.5,13.5-22.5,14.2c0,0,16.9-7,20.8-15.2l-8.2-3.9
		c0,0-9.6,13-20.4,13.5c0,0,18.7-10.1,18.4-14.2c0,0-7.8-3.1-10.2-2.9c0,0-7.1,9.2-13.4,8.9c0,0,11.8-8.1,11.1-9.5
		c0,0-11.2-1.3-17.2,1c0,0,8.7-4.1,17.3-2.7c0,0-3.7-4.9-8.7-6.3c0,0,6.4-2.1,11.5,6.7c0,0,8.7,1.4,9.7,2.4c0,0-3.8-9.4-9-13.6
		c0,0,8,2,11.2,14.6l8.3,3.7c0,0-4.4-12.7-8.8-16.8c0,0,7.9,3.3,10.8,17.9l7.6,4.8c0,0-2.9-11.2-6.8-16.8c0,0,6.6,4.6,8.9,18.3
		l4.7,3.8c0,0-2.3-8.1-3.2-10.4S68.4,18,68.4,18c3.2,4.3,5.1,9.4,5.5,14.7C73.8,32.6,83.1,41.1,83.6,40.5z"/>
</g>
</svg>
